<?xml version="1.0" encoding="UTF-8"?>
<svg width="2215px" height="1882px" viewBox="0 0 2215 1882" version="1.1" xmlns="http://www.w3.org/2000/svg" xmlns:xlink="http://www.w3.org/1999/xlink">
    <!-- Generator: Sketch 45.1 (43504) - http://www.bohemiancoding.com/sketch -->
    <title>Cards</title>
    <desc>Created with Sketch.</desc>
    <defs>
        <filter x="-2.7%" y="-1.6%" width="105.4%" height="104.1%" filterUnits="objectBoundingBox" id="filter-1">
            <feOffset dx="0" dy="2" in="SourceAlpha" result="shadowOffsetOuter1"></feOffset>
            <feGaussianBlur stdDeviation="2" in="shadowOffsetOuter1" result="shadowBlurOuter1"></feGaussianBlur>
            <feColorMatrix values="0 0 0 0 0   0 0 0 0 0   0 0 0 0 0  0 0 0 0.237601902 0" type="matrix" in="shadowBlurOuter1" result="shadowMatrixOuter1"></feColorMatrix>
            <feMerge>
                <feMergeNode in="shadowMatrixOuter1"></feMergeNode>
                <feMergeNode in="SourceGraphic"></feMergeNode>
            </feMerge>
        </filter>
        <filter x="-2.7%" y="-1.6%" width="105.4%" height="104.1%" filterUnits="objectBoundingBox" id="filter-2">
            <feOffset dx="0" dy="2" in="SourceAlpha" result="shadowOffsetOuter1"></feOffset>
            <feGaussianBlur stdDeviation="2" in="shadowOffsetOuter1" result="shadowBlurOuter1"></feGaussianBlur>
            <feColorMatrix values="0 0 0 0 0   0 0 0 0 0   0 0 0 0 0  0 0 0 0.237601902 0" type="matrix" in="shadowBlurOuter1" result="shadowMatrixOuter1"></feColorMatrix>
            <feMerge>
                <feMergeNode in="shadowMatrixOuter1"></feMergeNode>
                <feMergeNode in="SourceGraphic"></feMergeNode>
            </feMerge>
        </filter>
        <filter x="-2.7%" y="-1.6%" width="105.4%" height="104.1%" filterUnits="objectBoundingBox" id="filter-3">
            <feOffset dx="0" dy="2" in="SourceAlpha" result="shadowOffsetOuter1"></feOffset>
            <feGaussianBlur stdDeviation="2" in="shadowOffsetOuter1" result="shadowBlurOuter1"></feGaussianBlur>
            <feColorMatrix values="0 0 0 0 0   0 0 0 0 0   0 0 0 0 0  0 0 0 0.237601902 0" type="matrix" in="shadowBlurOuter1" result="shadowMatrixOuter1"></feColorMatrix>
            <feMerge>
                <feMergeNode in="shadowMatrixOuter1"></feMergeNode>
                <feMergeNode in="SourceGraphic"></feMergeNode>
            </feMerge>
        </filter>
        <filter x="-2.7%" y="-1.6%" width="105.4%" height="104.1%" filterUnits="objectBoundingBox" id="filter-4">
            <feOffset dx="0" dy="2" in="SourceAlpha" result="shadowOffsetOuter1"></feOffset>
            <feGaussianBlur stdDeviation="2" in="shadowOffsetOuter1" result="shadowBlurOuter1"></feGaussianBlur>
            <feColorMatrix values="0 0 0 0 0   0 0 0 0 0   0 0 0 0 0  0 0 0 0.237601902 0" type="matrix" in="shadowBlurOuter1" result="shadowMatrixOuter1"></feColorMatrix>
            <feMerge>
                <feMergeNode in="shadowMatrixOuter1"></feMergeNode>
                <feMergeNode in="SourceGraphic"></feMergeNode>
            </feMerge>
        </filter>
        <filter x="-2.7%" y="-1.6%" width="105.4%" height="104.1%" filterUnits="objectBoundingBox" id="filter-5">
            <feOffset dx="0" dy="2" in="SourceAlpha" result="shadowOffsetOuter1"></feOffset>
            <feGaussianBlur stdDeviation="2" in="shadowOffsetOuter1" result="shadowBlurOuter1"></feGaussianBlur>
            <feColorMatrix values="0 0 0 0 0   0 0 0 0 0   0 0 0 0 0  0 0 0 0.237601902 0" type="matrix" in="shadowBlurOuter1" result="shadowMatrixOuter1"></feColorMatrix>
            <feMerge>
                <feMergeNode in="shadowMatrixOuter1"></feMergeNode>
                <feMergeNode in="SourceGraphic"></feMergeNode>
            </feMerge>
        </filter>
        <filter x="-2.7%" y="-1.6%" width="105.4%" height="104.1%" filterUnits="objectBoundingBox" id="filter-6">
            <feOffset dx="0" dy="2" in="SourceAlpha" result="shadowOffsetOuter1"></feOffset>
            <feGaussianBlur stdDeviation="2" in="shadowOffsetOuter1" result="shadowBlurOuter1"></feGaussianBlur>
            <feColorMatrix values="0 0 0 0 0   0 0 0 0 0   0 0 0 0 0  0 0 0 0.237601902 0" type="matrix" in="shadowBlurOuter1" result="shadowMatrixOuter1"></feColorMatrix>
            <feMerge>
                <feMergeNode in="shadowMatrixOuter1"></feMergeNode>
                <feMergeNode in="SourceGraphic"></feMergeNode>
            </feMerge>
        </filter>
        <filter x="-2.7%" y="-1.6%" width="105.4%" height="104.1%" filterUnits="objectBoundingBox" id="filter-7">
            <feOffset dx="0" dy="2" in="SourceAlpha" result="shadowOffsetOuter1"></feOffset>
            <feGaussianBlur stdDeviation="2" in="shadowOffsetOuter1" result="shadowBlurOuter1"></feGaussianBlur>
            <feColorMatrix values="0 0 0 0 0   0 0 0 0 0   0 0 0 0 0  0 0 0 0.237601902 0" type="matrix" in="shadowBlurOuter1" result="shadowMatrixOuter1"></feColorMatrix>
            <feMerge>
                <feMergeNode in="shadowMatrixOuter1"></feMergeNode>
                <feMergeNode in="SourceGraphic"></feMergeNode>
            </feMerge>
        </filter>
    </defs>
    <g id="Page-1" stroke="none" stroke-width="1" fill="none" fill-rule="evenodd">
        <g id="Nebenangebot" filter="url(#filter-1)" transform="translate(472.000000, 142.000000)">
            <rect id="Rectangle" fill="#44E6E4" x="0" y="0" width="257" height="367" rx="3"></rect>
            <rect id="Rectangle-2" fill="#FFFFFF" x="14" y="172" width="229.169935" height="182.140297" rx="3"></rect>
            <path d="M201.197569,158 L240.169935,158 C241.826789,158 243.169935,156.656854 243.169935,155 L243.169935,19 C243.169935,17.3431458 241.826789,16 240.169935,16 L240.169935,16 L17,16 L17,16 C15.3431458,16 14,17.3431458 14,19 L14,19 L14,155 C14,156.656854 15.3431458,158 17,158 L56.1569267,158 C62.8429926,124.053408 92.7700801,98.4496407 128.677248,98.4496407 C164.584416,98.4496407 194.511503,124.053408 201.197569,158 Z" id="Combined-Shape" fill="#00CCCA"></path>
            <g id="Group" transform="translate(52.000000, 303.000000)" fill="#00CCCA">
                <rect id="Rectangle-3" x="0" y="4" width="154" height="6.30222965" rx="3.15111482"></rect>
                <circle id="Oval-2" cx="95" cy="7" r="6.95541618"></circle>
            </g>
            <text id="Sozialleistungen-um" font-family="STHeitiSC-Light, Heiti SC" font-size="14" font-weight="300" fill="#00CCCA">
                <tspan x="63.305" y="261">Sozialleistungen um </tspan>
                <tspan x="85.467" y="275">10% erhöhen</tspan>
            </text>
            <g id="Group-2" transform="translate(69.000000, 113.000000)">
                <circle id="Oval" fill="#FFFFFF" cx="60.0487362" cy="60.0487362" r="60.0487362"></circle>
                <g id="Group-4" transform="translate(31.000000, 31.000000)" fill="#00CCCA">
                    <path d="M24.6226614,9 C25.9826018,9 27.1435266,9.47542633 28.1054357,10.4373354 C29.0673447,11.3992445 29.5427711,12.5601693 29.5427711,13.9201097 L29.5427711,28.6914952 L44.3141566,28.6914952 C45.6740971,28.6914952 46.8350218,29.1669216 47.7969309,30.1288307 C48.75884,31.0907398 49.2342663,32.2516645 49.2342663,33.6116049 C49.2342663,34.9715454 48.75884,36.1324701 47.7969309,37.0943792 C46.8350218,38.0562883 45.6740971,38.5317147 44.3141566,38.5317147 L29.5427711,38.5317147 L29.5427711,53.3031002 C29.5427711,54.6630406 29.0673447,55.8239654 28.1054357,56.7858745 C27.1435266,57.7477836 25.9826018,58.2232099 24.6226614,58.2232099 C23.2627209,58.2232099 22.1017962,57.7477836 21.1398871,56.7858745 C20.177978,55.8239654 19.7025517,54.6630406 19.7025517,53.3031002 L19.7025517,38.5427711 L4.9201097,38.5427711 C3.56016927,38.5427711 2.39924451,38.0673447 1.43733542,37.1054357 C0.475426331,36.1435266 0,34.9826018 0,33.6226614 C0,32.2627209 0.475426331,31.1017962 1.43733542,30.1398871 C2.39924451,29.177978 3.56016927,28.7025517 4.9201097,28.7025517 L19.6914952,28.7025517 L19.6914952,13.9201097 C19.6914952,12.5601693 20.1669216,11.3992445 21.1288307,10.4373354 C22.1017962,9.47542633 23.2627209,9 24.6226614,9 Z" id="Path"></path>
                    <path d="M49.6316622,0 C50.1083997,0 50.5153707,0.166664335 50.8525753,0.503868919 C51.1897799,0.841073504 51.3564442,1.24804455 51.3564442,1.72478207 L51.3564442,6.90300419 L56.5346664,6.90300419 C57.0114039,6.90300419 57.4183749,7.06966853 57.7555795,7.40687311 C58.0927841,7.7440777 58.2594484,8.15104875 58.2594484,8.62778626 C58.2594484,9.10452378 58.0927841,9.51149483 57.7555795,9.84869941 C57.4183749,10.185904 57.0114039,10.3525683 56.5346664,10.3525683 L51.3564442,10.3525683 L51.3564442,15.5307905 C51.3564442,16.007528 51.1897799,16.414499 50.8525753,16.7517036 C50.5153707,17.0889082 50.1083997,17.2555725 49.6316622,17.2555725 C49.1549247,17.2555725 48.7479536,17.0889082 48.410749,16.7517036 C48.0735444,16.414499 47.9068801,16.007528 47.9068801,15.5307905 L47.9068801,10.3564442 L42.7247821,10.3564442 C42.2480446,10.3564442 41.8410735,10.1897799 41.5038689,9.85257533 C41.1666643,9.51537074 41,9.10839969 41,8.63166218 C41,8.15492466 41.1666643,7.74795361 41.5038689,7.41074903 C41.8410735,7.07354444 42.2480446,6.90688011 42.7247821,6.90688011 L47.9030042,6.90688011 L47.9030042,1.72478207 C47.9030042,1.24804455 48.0696685,0.841073504 48.4068731,0.503868919 C48.7479536,0.166664335 49.1549247,0 49.6316622,0 Z" id="Path"></path>
                </g>
            </g>
            <text id="Sozial-leistungen" font-family="STHeitiSC-Medium, Heiti SC" font-size="30" font-weight="bold" fill="#FFFFFF">
                <tspan x="88.6699675" y="53">Sozial</tspan>
                <tspan x="54.6649675" y="83">leistungen</tspan>
            </text>
        </g>
        <g id="Angebot" filter="url(#filter-2)" transform="translate(4.000000, 142.000000)">
            <rect id="Rectangle" fill="#25D7FC" x="0" y="0" width="257" height="367" rx="3"></rect>
            <rect id="Rectangle-2" fill="#FFFFFF" x="14" y="172" width="229.169935" height="182.140297" rx="3"></rect>
            <path d="M201.197569,158 L240.169935,158 C241.826789,158 243.169935,156.656854 243.169935,155 L243.169935,19 C243.169935,17.3431458 241.826789,16 240.169935,16 L240.169935,16 L17,16 L17,16 C15.3431458,16 14,17.3431458 14,19 L14,19 L14,155 C14,156.656854 15.3431458,158 17,158 L56.1569267,158 C62.8429926,124.053408 92.7700801,98.4496407 128.677248,98.4496407 C164.584416,98.4496407 194.511503,124.053408 201.197569,158 Z" id="Combined-Shape" fill="#19B6DA"></path>
            <g id="Group" transform="translate(52.000000, 303.000000)" fill="#19B6DA">
                <rect id="Rectangle-3" x="0" y="4" width="154" height="6.30222965" rx="3.15111482"></rect>
                <circle id="Oval-2" cx="95" cy="7" r="6.95541618"></circle>
            </g>
            <text id="10%-Gehaltserhöhung" font-family="STHeitiSC-Light, Heiti SC" font-size="14" font-weight="300" fill="#19B6DA">
                <tspan x="54.856" y="261">10% Gehaltserhöhung</tspan>
            </text>
            <g id="Group-2" transform="translate(68.000000, 112.000000)">
                <circle id="Oval" fill="#FFFFFF" cx="60.6772479" cy="60.6772479" r="60.0487362"></circle>
                <path d="M39.898128,86.4994568 C37.5105203,86.2706554 35.6149378,85.6768401 33.8287173,84.5981531 C31.4165032,83.1414205 29.3975237,80.7957756 28.0711587,77.9090256 C27.6730187,77.0425001 27.1604299,75.6355766 27.1604299,75.4093099 C27.1604299,75.3245893 27.1839581,75.3233198 28.7564686,75.3233198 C30.2336061,75.3233198 30.3553419,75.3177647 30.3905648,75.2487681 C30.4114968,75.2077646 32.397222,69.2258721 34.8032875,61.9556717 L39.1779518,48.7371262 L38.966843,48.4214916 C38.6206243,47.903852 38.4862147,47.463739 38.4851863,46.8443495 C38.4834184,45.7795789 39.0749302,44.8444308 40.0472315,44.3748396 C40.3707068,44.2186107 40.8817075,44.0963544 41.2063126,44.0975306 C41.6589188,44.0991707 42.2221495,44.2800418 42.6709225,44.567863 C42.7784112,44.6368013 42.9049515,44.693205 42.9521236,44.693205 C43.1239845,44.693205 44.5947724,43.5871093 46.5225829,42.0080659 C47.9767892,40.8169463 48.6605011,40.3124853 49.5259531,39.792095 C50.4890764,39.2129771 51.5564657,38.7802553 52.5279346,38.5750847 C53.226216,38.4276098 54.522232,38.3882094 55.3473579,38.489371 C55.6554569,38.5271441 55.9367385,38.5692547 55.9724296,38.5829501 C56.0542533,38.6143483 56.112344,38.5475827 56.4383822,38.0474496 C56.9584041,37.249754 57.8742573,36.4757059 58.7580448,36.0869483 C60.9526947,35.1215736 63.45011,35.5730091 65.1204695,37.2370274 C65.3704095,37.4860217 65.6290444,37.7990713 65.7900123,38.0474496 C66.1134092,38.5464585 66.1723647,38.6144378 66.2544228,38.5829501 C66.2901096,38.5692547 66.5713912,38.5271441 66.8794902,38.489371 C67.7046161,38.3882094 69.0006321,38.4276098 69.6989135,38.5750847 C71.0181514,38.8537028 72.3553157,39.4844076 73.7659199,40.4933854 C74.3867016,40.9374189 74.7379468,41.2137639 76.0757629,42.310688 C77.5614471,43.5288499 79.1225606,44.693205 79.2701389,44.693205 C79.3147848,44.693205 79.4782959,44.6166207 79.6334914,44.5230178 C80.4683388,44.0194966 81.3256753,43.9702882 82.1796166,44.3768781 C83.1469744,44.8374681 83.7426684,45.7779218 83.7426769,46.8445553 C83.7426812,47.4584382 83.6064432,47.9035227 83.2599693,48.4215428 L83.048826,48.7372281 L87.4234413,61.9557228 C89.8294817,69.2258951 91.8152206,75.2077646 91.8362016,75.2487681 C91.8715008,75.3177647 91.9932715,75.3233198 93.4703801,75.3233198 C95.0428893,75.3233198 95.0664179,75.3245979 95.0664179,75.4093099 C95.0664179,75.4566056 94.996974,75.710614 94.9120958,75.9737731 C93.8430536,79.2882968 91.7770373,82.2277058 89.2407274,84.0426446 C87.6042144,85.2137034 85.6817209,86.0004841 83.6493509,86.3309188 C82.6402526,86.494988 82.4695802,86.506077 80.9654882,86.5053315 C79.3474811,86.5045221 79.0685723,86.4811299 77.8809418,86.2465304 C73.3055565,85.3427162 69.6825292,82.2329586 67.6268607,77.4451178 C67.3741218,76.8564572 66.9071595,75.5221302 66.9071595,75.3885845 C66.9071595,75.3311286 67.097718,75.3233198 68.4994782,75.3233198 C69.7226082,75.3233198 70.10151,75.3109741 70.1336695,75.2700686 C70.1776848,75.2140951 78.9206404,48.8246687 78.9206404,48.7478003 C78.9206404,48.723358 78.8583364,48.6032931 78.7821871,48.4809895 C78.7060379,48.3586858 78.5844887,48.0746475 78.5120798,47.8497939 L78.3804214,47.4409692 L77.9264396,47.1640627 C77.1826561,46.7103898 76.7819511,46.3948753 75.0453769,44.8955162 C71.8154673,42.106815 69.8244075,41.0400937 68.0147854,41.1288423 C67.4940649,41.1543799 66.832399,41.2576455 66.7663632,41.3236826 C66.7444961,41.3455467 66.7091799,41.5371996 66.6878751,41.749578 C66.4703161,43.9185898 64.9799288,45.7871939 62.9026659,46.4953647 C62.2902425,46.7041496 61.9180291,46.7589912 61.113424,46.7589912 C60.3083632,46.7589912 59.9327673,46.7036001 59.3272154,46.4955666 C58.0207025,46.0467264 56.9131959,45.1333521 56.2357719,43.9460214 C55.8759085,43.3152834 55.6128431,42.4860533 55.538973,41.749578 C55.5176725,41.5371996 55.482352,41.3455467 55.4604891,41.3236826 C55.3944533,41.2576455 54.7327832,41.1543799 54.2120627,41.1288423 C52.404234,41.0401815 50.4024771,42.1119105 47.1876611,44.8896671 C45.4516501,46.3896623 45.0455536,46.7095591 44.3004063,47.1640627 L43.846425,47.4409692 L43.7147696,47.8497939 C43.642359,48.0746475 43.5208102,48.3586858 43.4446609,48.4809895 C43.3685117,48.6032931 43.3062077,48.7234283 43.3062077,48.7479567 C43.3062077,48.8250291 52.0490355,75.2140653 52.0931232,75.2700686 C52.1253253,75.3109741 52.5042697,75.3233198 53.7273656,75.3233198 C55.1291301,75.3233198 55.3196886,75.3311286 55.3196886,75.3885845 C55.3196886,75.5214869 54.8531523,76.8555626 54.5976145,77.4533696 C53.7180871,79.5109594 52.488043,81.3288973 51.0023162,82.7670004 C48.7956017,84.9029802 46.1228109,86.1225658 42.9014982,86.4633695 C42.364528,86.5201822 40.3650741,86.5442049 39.898128,86.4994568 Z M49.2544016,75.2608242 C49.2675909,75.2264494 47.4873336,69.8251799 45.2982729,63.2579944 C41.846773,52.9034956 41.3073166,51.3176599 41.2365095,51.3176599 C41.1657202,51.3176599 40.6268019,52.8989087 37.1856553,63.2033377 C35.0025941,69.7404593 33.2149498,75.1417331 33.2131124,75.2061671 L33.2097725,75.3233198 L41.2200966,75.3233198 C48.2210292,75.3233198 49.2334419,75.3154429 49.2544016,75.2608242 Z M89.0137365,75.2061671 C89.0119047,75.1417331 87.2242519,69.7404593 85.0411936,63.2033377 C81.6000471,52.8989087 81.0611274,51.3176599 80.9903373,51.3176599 C80.9195302,51.3176599 80.3800738,52.9034956 76.9285752,63.2579944 C74.7395145,69.8251799 72.9592572,75.2264494 72.9724465,75.2608242 C72.9934062,75.3154429 74.0058188,75.3233198 81.0067515,75.3233198 L89.0170764,75.3233198 L89.0137536,75.2061671 L89.0137365,75.2061671 Z M27.0819542,75.3707046 C27.0819542,75.3078665 27.1139743,75.28216 27.1531085,75.313579 C27.1922428,75.3449981 27.1922428,75.3964111 27.1531085,75.4278302 C27.1139743,75.4592492 27.0819542,75.4335427 27.0819542,75.3707046 Z M95.1157456,75.3707046 C95.1157456,75.3078665 95.1477685,75.28216 95.1869013,75.313579 C95.2260341,75.3449981 95.2260341,75.3964111 95.1869013,75.4278302 C95.1477685,75.4592492 95.1157456,75.4335427 95.1157456,75.3707046 Z" id="path4320" fill="#19B6DA" fill-rule="nonzero"></path>
            </g>
            <text font-family="STHeitiSC-Medium, Heiti SC" font-size="36" font-weight="bold" fill="#FFFFFF">
                <tspan x="49" y="69">Angebot</tspan>
            </text>
        </g>
        <g id="Einigung" filter="url(#filter-3)" transform="translate(1490.000000, 142.000000)">
            <rect id="Rectangle" fill="#F9DCA5" x="0" y="0" width="257" height="367" rx="3"></rect>
            <rect id="Rectangle-2" fill="#FFFFFF" x="14" y="172" width="229.169935" height="182.140297" rx="3"></rect>
            <path d="M201.197569,158 L240.169935,158 C241.826789,158 243.169935,156.656854 243.169935,155 L243.169935,19 C243.169935,17.3431458 241.826789,16 240.169935,16 L240.169935,16 L17,16 L17,16 C15.3431458,16 14,17.3431458 14,19 L14,19 L14,155 C14,156.656854 15.3431458,158 17,158 L56.1569267,158 C62.8429926,124.053408 92.7700801,98.4496407 128.677248,98.4496407 C164.584416,98.4496407 194.511503,124.053408 201.197569,158 Z" id="Combined-Shape" fill="#EFCE91"></path>
            <text id="Den-Tarifvertrag-fes" font-family="STHeitiSC-Light, Heiti SC" font-size="18" font-weight="300" fill="#EFCE91">
                <tspan x="59.889" y="267">Den Tarifvertrag </tspan>
                <tspan x="88.734" y="285">festlegen</tspan>
            </text>
            <g id="Group-2" transform="translate(69.000000, 113.000000)">
                <circle id="Oval" fill="#FFFFFF" cx="60.0487362" cy="60.0487362" r="60.0487362"></circle>
                <circle id="Oval-3" fill="#EFCE91" cx="60" cy="60" r="36"></circle>
                <path d="M85.4922648,49.1892995 C85.4922648,48.42722 85.4922648,47.6650656 85.6011226,46.9029861 C85.6011226,46.7941283 85.6011226,46.5763379 85.6011226,46.5763379 L85.6011226,46.4674801 C85.7099804,46.031974 85.2744744,45.5964679 84.8390431,45.7054006 C82.3349393,46.3586223 79.7220525,46.7941283 77.1090908,47.0118439 C75.9115053,47.1207018 74.8227775,47.1207018 73.7340497,46.5763379 C72.4276063,45.9231162 71.121088,45.2698945 69.7057868,44.7255306 C66.9839674,43.527945 64.1532901,42.2214267 61.322538,41.1326989 C60.4515258,40.8060507 59.4717307,41.1326989 58.6007185,41.568205 C57.2942751,42.1125689 55.9877569,42.8746484 54.6813135,43.6368028 C54.5724557,43.6368028 54.4635979,43.527945 54.3546652,43.527945 C53.2659374,43.2012967 52.2860674,42.8747233 50.979624,43.2012967 C48.4755202,43.8545184 46.2980646,45.4876101 43.9028935,46.3586223 C42.3786596,46.9029861 40.5278523,46.4674801 38.8947606,46.1409066 C37.9148906,45.923191 36.9350207,45.5965428 36.0640834,45.1610367 C35.8463678,45.0521789 35.6285773,45.1610367 35.6285773,45.3787523 C34.5398495,50.3868851 35.0842134,55.8305989 35.6285773,61.0564473 C35.7374351,61.8185268 35.7374351,62.689539 36.1729412,63.3427607 C36.281799,63.5604763 36.4995895,63.5604763 36.8261629,63.5604763 C38.0237485,63.3427607 39.8746306,63.4516185 40.9633584,63.7781919 C41.3988645,63.8870497 41.7254379,64.1048402 42.160944,64.213698 C42.0520862,65.0847102 42.0520862,65.8467897 41.9432284,66.7178019 C41.8343706,67.8065296 41.7255128,68.8952574 42.0520862,69.9839852 C42.5964501,71.7259347 44.2295417,72.4880891 45.8626334,72.2702986 C46.7336456,73.9033902 48.4755951,74.4477541 50.1086867,73.7945324 C50.5441928,75.971988 52.5038579,77.1695736 54.5724557,76.5163519 C55.2256774,78.2583014 56.8587691,79.3470292 58.7096512,78.9115231 C59.6895212,78.6938075 60.4516007,77.9316531 60.8871068,77.1695736 C60.9959646,76.951858 61.1048224,76.7340675 61.2137551,76.5163519 C61.4314707,76.7340675 61.7581189,76.8430002 61.9758346,77.0607158 C63.5000684,78.2583014 65.7863818,78.1494436 66.5485362,76.0808458 C66.7662518,75.3187663 66.0041723,74.5566119 65.5686662,74.1211059 C65.2420179,73.7944576 64.9154445,73.576742 64.5887962,73.2500937 C64.4799384,73.1412359 64.4799384,73.0323781 64.3710806,72.9234454 C64.8065867,72.5967971 65.1331601,72.7057298 65.3509506,73.0323032 C65.7864567,73.3589515 66.1130301,73.7943827 66.5485362,74.121031 C68.07277,75.5364071 69.7058617,77.0605661 71.6656017,75.6452649 C72.3188234,75.100901 72.4276812,74.3388215 72.4276812,73.5766671 C72.4276812,72.8145876 71.9921751,72.3790815 71.4478112,71.9435754 C70.7945895,71.2903537 70.1413678,70.637132 69.4880712,69.9838355 C69.1614229,69.6571872 68.9437073,69.4394716 68.6170591,69.221756 C68.181553,68.8951077 68.8347747,69.0040404 69.0525651,69.0040404 C69.2702808,69.1128982 69.4880712,69.3306886 69.7057868,69.5484042 C71.0122302,70.7459898 72.3187485,72.7057298 74.1695558,72.8145876 C76.1292957,72.9234454 77.5445969,70.9637803 76.7825174,69.0040404 C76.3470113,68.0241704 75.2582836,67.2620909 74.6050619,66.6088692 C74.2784136,66.2822209 73.8429824,65.8467897 73.5163341,65.5201414 C73.2986185,65.4112836 73.1896858,65.1934931 72.9719702,65.0846353 C72.6453219,64.8669197 72.7542546,64.757987 73.2986185,64.757987 C73.5163341,64.8668448 73.6252668,65.0846353 73.8429824,65.1934931 C74.8228523,66.0645053 75.8027223,66.717727 76.7825174,67.4798065 C77.6535296,68.0241704 78.3067513,68.3508187 79.2866213,67.9153126 C80.8108551,67.3709487 81.0285708,65.3023509 80.5930647,63.8869749 C80.5930647,63.6692592 80.4842069,63.5603266 80.3753491,63.342611 C80.7019973,63.342611 81.0285708,63.2337532 81.355219,63.2337532 C82.6616624,63.1248954 83.9681807,63.0160375 85.2746241,62.9071049 C85.6012724,62.9071049 85.9278458,62.6893893 85.9278458,62.2538832 C85.6011226,58.0080545 85.3833322,53.6531433 85.4922648,49.1892995 Z M55.3343854,75.6454895 C55.2255276,75.2099834 54.7900216,75.1011256 54.4633733,75.2099834 C52.7214238,76.0809956 50.9794743,74.8833351 50.9794743,72.92367 C50.9794743,72.4881639 50.4351104,72.1615905 50.1084621,72.3793061 C48.8020187,73.2503183 47.1689271,72.8148122 46.5156305,71.2905783 C46.4067727,71.0728627 46.0801244,70.96393 45.8624088,70.96393 C44.4470327,71.3994361 43.358305,70.6372818 42.9228737,69.2219806 C42.7051581,68.5687589 42.9228737,67.8066045 42.9228737,67.1533828 C43.0317315,66.2823706 43.0317315,65.3025755 43.1405894,64.4315633 C43.2494472,62.9073295 43.358305,61.6008861 44.8825388,60.9475895 C46.1889822,60.4032256 47.4955005,61.4919534 47.8220739,62.7983968 C47.9309317,63.2339029 48.4752956,63.4516185 48.8019439,63.1250451 C50.2173199,61.6008112 52.5036333,62.3629656 52.8302816,64.4314885 C52.9391394,64.9758524 53.4835033,64.9758524 53.8101516,64.7581368 C54.7900216,63.8871246 56.2053228,63.9960573 57.1851927,64.9758524 C58.0562049,65.9557224 57.511841,67.3710235 57.1851927,68.568684 C56.9674771,69.1130479 57.6206988,69.6574118 58.0562049,69.3307635 C60.1248027,67.8065296 62.411116,70.092843 61.5401039,72.3792312 C61.2134556,73.1413107 60.8868822,73.9034651 60.5602339,74.7744024 C60.1247278,75.6454146 59.9070122,76.6252097 59.2537905,77.3873641 C57.8384893,78.802815 55.6610337,77.4962967 55.3343854,75.6454895 Z M79.3953293,62.2541078 C77.8710955,60.7298739 76.2380038,59.0967822 74.7137699,57.5725484 C73.7339,56.5926784 72.6451722,55.5039506 71.6653022,54.5240806 C71.1209383,53.9797167 70.5765744,53.7620011 69.9233527,53.5442106 C68.5079766,52.890989 67.2015333,52.3466251 65.7861572,51.6934034 C65.4595089,51.5845456 65.1329355,51.3667551 64.8062872,51.2578973 C65.1329355,51.3667551 64.6974294,51.1490395 64.6974294,51.1490395 C64.3707811,50.9313239 64.1530655,50.8223912 63.8264172,50.6046756 C63.1731955,50.1691695 62.4110412,49.8425961 61.7578195,49.40709 C61.4311712,49.1893744 60.8868073,48.7538683 60.4513761,48.7538683 C59.9070122,48.7538683 59.2537905,49.40709 58.8182844,49.6248805 C58.0562049,50.0603866 57.2940505,50.4958926 56.531971,50.9313239 C54.8988794,51.9111938 53.3746455,52.7821311 51.9592694,53.7620011 L51.9592694,53.7620011 C50.3261777,54.6330133 49.0197344,52.890989 48.6930861,51.36683 C48.4753705,50.6047504 48.5842283,49.7337383 48.9108017,48.9716588 C49.23745,48.3184371 50.1083873,47.882931 50.761609,47.5562827 C52.3947006,46.5764127 53.9189345,45.5965428 55.5520262,44.6167476 C57.0762601,43.7457355 58.6004939,42.8747982 60.1246529,42.3304343 C60.8867324,42.1127187 61.540029,42.4392921 62.3021085,42.7659404 C63.8263424,43.4191621 65.2416436,44.0723838 66.7658774,44.7256803 C68.3989691,45.4877598 70.0320608,46.1410564 71.6651525,46.9031359 C72.6450224,47.338642 73.6248924,47.9918637 74.6046875,48.2095793 C76.6732853,48.6450854 78.9595987,48.1007215 80.9193386,47.7740732 C82.1169242,47.5563576 83.205652,47.3385671 84.4032376,47.1208515 C84.4032376,47.7740732 84.4032376,48.4272949 84.2943798,48.9716588 C84.185522,53.2177121 84.2943798,57.4637654 84.5120954,61.7098188 C83.6410832,61.8186766 82.6612881,61.9275344 81.7902759,61.9275344 C81.1370542,62.0363922 80.4838325,62.0363922 79.830536,62.14525 C79.6131198,62.2541078 79.5041872,62.2541078 79.3953293,62.2541078 Z" id="Shape" fill="#FFFFFF" fill-rule="nonzero"></path>
            </g>
            <text font-family="STHeitiSC-Medium, Heiti SC" font-size="36" font-weight="bold" fill="#FFFFFF">
                <tspan x="54.6049675" y="69">Einigung</tspan>
            </text>
        </g>
        <g id="Angriff" transform="translate(964.000000, 142.000000)">
            <rect id="Rectangle" fill="#FF494F" x="0" y="0" width="257" height="367" rx="3"></rect>
            <rect id="Rectangle-2" fill="#FFFFFF" x="14" y="172" width="229.169935" height="182.140297" rx="3"></rect>
            <path d="M201.197569,158 L240.169935,158 C241.826789,158 243.169935,156.656854 243.169935,155 L243.169935,19 C243.169935,17.3431458 241.826789,16 240.169935,16 L240.169935,16 L17,16 L17,16 C15.3431458,16 14,17.3431458 14,19 L14,19 L14,155 C14,156.656854 15.3431458,158 17,158 L56.1569267,158 C62.8429926,124.053408 92.7700801,98.4496407 128.677248,98.4496407 C164.584416,98.4496407 194.511503,124.053408 201.197569,158 Z" id="Combined-Shape" fill="#D84E52"></path>
            <g id="Group-3" transform="translate(31.000000, 246.000000)">
                <rect id="Rectangle-4" fill="#D84E52" x="0" y="0" width="196.17144" height="34" rx="17"></rect>
                <path d="M14.4328456,8.00003391 C17.792319,12.8103558 14.8718779,12.4480727 13.5327726,12.8559972 C14.8691225,14.6503904 14.1029256,16.3365462 12,17.3926062 C13.8082054,18.1075761 16.2105354,18.4252011 13.4474942,22.19774 C16.1883203,20.671024 18.0870737,20.5423056 17.8261066,24 C19.8166824,22.0164967 22.4083746,21.016929 24.991904,22.6934886 C24.6971493,20.1870756 25.4279398,19.0895111 27.9842256,20.1706637 C25.2433306,17.6949722 26.3759216,16.224918 28,14.7849071 C25.1932519,14.6753134 24.7996487,12.5639734 24.9029058,10.0403686 C23.2089446,11.8551071 21.9237755,11.6597238 21.3208682,8.10884769 C20.1565217,10.7149869 18.5884116,12.378322 14.4328112,8 L14.4328456,8.00003391 Z M18.234451,11.707705 C18.7889674,11.7197765 19.114961,12.1213262 19.4284177,12.5445097 L17.3789805,16.0393683 C16.6756058,16.1066775 16.1628332,15.8841671 15.9397523,15.221383 L17.9893962,11.7262531 C18.0558692,11.7151988 18.1193114,11.709197 18.1801016,11.7077728 C18.1984936,11.707332 18.2166101,11.7072981 18.234451,11.707705 Z M20.6122239,12.0873833 C21.1667402,12.0993193 21.4928027,12.5010724 21.8062594,12.9241203 L19.5018136,16.960335 C18.7984045,17.0276443 18.2856663,16.8048286 18.0626543,16.1422141 L20.367169,12.1060332 C20.4336421,12.094945 20.4970843,12.0888414 20.5578744,12.0873833 C20.576232,12.0869425 20.5943141,12.0869425 20.6121895,12.0873155 L20.6122239,12.0873833 Z M22.6341075,13.1741648 C23.1886927,13.1862703 23.5146863,13.587786 23.8282119,14.0108 L21.5569337,17.9966939 C20.8535246,18.0638336 20.3407864,17.8413909 20.1178433,17.1787086 L22.3889493,13.192713 C22.4554224,13.1816926 22.518899,13.1756907 22.579758,13.1742665 C22.5980811,13.1738257 22.6162665,13.1738257 22.6341764,13.1741987 L22.6341075,13.1741648 Z M24.230219,15.0470571 C24.8079148,15.0503802 25.1514049,15.4531845 25.4823237,15.8773175 L23.5688291,19.1402728 C22.8790935,19.1842527 22.3683185,18.9582835 22.1296354,18.3222197 L24.0432333,15.0593661 C24.1082254,15.0507193 24.1704277,15.0467519 24.2301845,15.047091 L24.230219,15.0470571 Z M15.6650773,16.3321041 L19.3100749,17.9434568 C19.4139176,18.6789417 19.2142573,19.2587167 18.5537973,19.601943 L14.9086619,17.9904885 C14.7533974,17.2574451 15.1936007,16.7872299 15.6650084,16.3321041 L15.6650773,16.3321041 Z" id="Shape" fill="#FFFFFF" fill-rule="nonzero"></path>
                <text id="Finanzen" font-family="STHeitiSC-Light, Heiti SC" font-size="12" font-weight="300" fill="#FFFFFF">
                    <tspan x="129" y="21">Finanzen</tspan>
                </text>
                <text id="-10" font-family="STHeitiSC-Light, Heiti SC" font-size="12" font-weight="300" fill="#FFFFFF">
                    <tspan x="39" y="21">-10</tspan>
                </text>
            </g>
            <path d="M220.808997,215.15092 C219.482189,214.992201 218.851031,214.814681 218.851031,214.239709 C218.851031,213.346644 220.158601,213.250232 220.721112,213.250232 C221.552307,213.250232 222.470951,213.650527 222.768712,214.142642 L222.899666,214.359732 L224.855883,213.454205 L224.728208,213.194047 C224.054638,211.816737 222.864468,211.394799 221.939047,211.222526 L221.939047,210 L219.65162,210 L219.65162,211.215749 C217.677913,211.529251 216.50873,212.646402 216.50873,214.239709 C216.50873,216.869496 218.967337,217.144084 220.593,217.325539 C222.029337,217.495625 222.727174,217.851103 222.727174,218.41252 C222.727174,219.519833 221.150264,219.605533 220.666675,219.605533 C219.5786,219.605533 218.531845,219.068601 218.231898,218.356335 L218.121276,218.094427 L216,218.993614 L216.111715,219.255084 C216.6974,220.627365 217.94944,221.493759 219.65162,221.714347 L219.65162,223.03088 L221.939047,223.03088 L221.939047,221.648542 C223.577827,221.439978 225.150146,220.386445 225.150146,218.412083 C225.150802,215.68501 222.538286,215.363637 220.808997,215.15092 Z" id="Shape" fill="#D84E52"></path>
            <g id="Group-3" transform="translate(31.000000, 293.000000)">
                <rect id="Rectangle-4" fill="#D84E52" x="0" y="0" width="196.17144" height="34" rx="17"></rect>
                <path d="M14.4328456,8.00003391 C17.792319,12.8103558 14.8718779,12.4480727 13.5327726,12.8559972 C14.8691225,14.6503904 14.1029256,16.3365462 12,17.3926062 C13.8082054,18.1075761 16.2105354,18.4252011 13.4474942,22.19774 C16.1883203,20.671024 18.0870737,20.5423056 17.8261066,24 C19.8166824,22.0164967 22.4083746,21.016929 24.991904,22.6934886 C24.6971493,20.1870756 25.4279398,19.0895111 27.9842256,20.1706637 C25.2433306,17.6949722 26.3759216,16.224918 28,14.7849071 C25.1932519,14.6753134 24.7996487,12.5639734 24.9029058,10.0403686 C23.2089446,11.8551071 21.9237755,11.6597238 21.3208682,8.10884769 C20.1565217,10.7149869 18.5884116,12.378322 14.4328112,8 L14.4328456,8.00003391 Z M18.234451,11.707705 C18.7889674,11.7197765 19.114961,12.1213262 19.4284177,12.5445097 L17.3789805,16.0393683 C16.6756058,16.1066775 16.1628332,15.8841671 15.9397523,15.221383 L17.9893962,11.7262531 C18.0558692,11.7151988 18.1193114,11.709197 18.1801016,11.7077728 C18.1984936,11.707332 18.2166101,11.7072981 18.234451,11.707705 Z M20.6122239,12.0873833 C21.1667402,12.0993193 21.4928027,12.5010724 21.8062594,12.9241203 L19.5018136,16.960335 C18.7984045,17.0276443 18.2856663,16.8048286 18.0626543,16.1422141 L20.367169,12.1060332 C20.4336421,12.094945 20.4970843,12.0888414 20.5578744,12.0873833 C20.576232,12.0869425 20.5943141,12.0869425 20.6121895,12.0873155 L20.6122239,12.0873833 Z M22.6341075,13.1741648 C23.1886927,13.1862703 23.5146863,13.587786 23.8282119,14.0108 L21.5569337,17.9966939 C20.8535246,18.0638336 20.3407864,17.8413909 20.1178433,17.1787086 L22.3889493,13.192713 C22.4554224,13.1816926 22.518899,13.1756907 22.579758,13.1742665 C22.5980811,13.1738257 22.6162665,13.1738257 22.6341764,13.1741987 L22.6341075,13.1741648 Z M24.230219,15.0470571 C24.8079148,15.0503802 25.1514049,15.4531845 25.4823237,15.8773175 L23.5688291,19.1402728 C22.8790935,19.1842527 22.3683185,18.9582835 22.1296354,18.3222197 L24.0432333,15.0593661 C24.1082254,15.0507193 24.1704277,15.0467519 24.2301845,15.047091 L24.230219,15.0470571 Z M15.6650773,16.3321041 L19.3100749,17.9434568 C19.4139176,18.6789417 19.2142573,19.2587167 18.5537973,19.601943 L14.9086619,17.9904885 C14.7533974,17.2574451 15.1936007,16.7872299 15.6650084,16.3321041 L15.6650773,16.3321041 Z" id="Shape" fill="#FFFFFF" fill-rule="nonzero"></path>
                <text id="Motivation" font-family="STHeitiSC-Light, Heiti SC" font-size="12" font-weight="300" fill="#FFFFFF">
                    <tspan x="123" y="21">Motivation</tspan>
                </text>
                <text id="-13" font-family="STHeitiSC-Light, Heiti SC" font-size="12" font-weight="300" fill="#FFFFFF">
                    <tspan x="39" y="21">-13</tspan>
                </text>
            </g>
            <g id="Group-2" transform="translate(68.000000, 112.000000)">
                <circle id="Oval" fill="#FFFFFF" cx="60.6772479" cy="60.6772479" r="60.0487362"></circle>
                <g id="Group" transform="translate(20.000000, 20.000000)" fill-rule="nonzero">
                    <path d="M80.6347519,50.8552632 C80.9015144,50.7773009 80.9325115,50.1644047 80.9822946,49.9159587 C81.1823665,48.917478 81.4157836,47.9222848 81.5331967,46.9101841 C81.8910717,43.8273866 82.1536074,40.66921 81.8497423,37.564104 C81.7478278,36.5274875 81.5468166,35.5344078 81.3984065,34.5113642 C80.2101863,26.3190318 76.3416605,18.5139277 70.583254,12.531638 C68.6919643,10.5668477 66.5465928,8.81250861 64.3378181,7.22545966 C63.6295825,6.71673232 62.8584135,6.35571062 62.1313918,5.88929895 C59.2885866,4.0650756 56.0921332,2.62925468 52.8313375,1.7020202 C43.6308496,-0.914130803 33.4806308,-0.617991564 24.6522013,3.32274322 C17.2340437,6.63402655 10.947842,12.0324446 6.49516276,18.8221605 C4.05353453,22.5452349 2.21108868,26.7435505 1.19156753,31.0829026 C0.87906091,32.4129109 0.719050381,33.7394907 0.499018293,35.0749469 C-0.0087697417,38.1573687 -0.137172672,41.3496891 0.223755097,44.4679923 C0.294062042,45.0752527 0.254000703,45.6876793 0.336377712,46.2996362 C0.707543901,49.0560254 1.30733682,51.8086573 2.23480612,54.4246205 C5.24997369,62.9290838 11.076104,70.4731082 18.6876175,75.3861406 C25.7619427,79.9521 33.9437549,82.0476884 42.3111267,81.8992783 C43.5514783,81.8772046 44.8021623,81.6574074 46.0223189,81.5273137 C58.2205973,80.2268465 69.1902654,73.0425758 75.7522469,62.6905004 C77.3885154,60.1088219 78.7162224,57.3181481 79.6954474,54.4246205 C80.0777443,53.2941675 80.6347519,52.0613302 80.6347519,50.8552632 Z" id="path24" fill="#FFFFFF"></path>
                    <path d="M25.1688188,74.8544942 C25.1791981,73.5981744 25.394064,72.393986 25.4487785,71.1442413 C25.5465601,68.9105751 25.575115,66.6449725 25.8831129,64.4282138 C26.0517651,63.2146324 26.1727945,61.9414051 26.2027583,60.7179609 C26.2109772,60.3816899 26.3765296,59.8791619 26.2711397,59.5588591 C26.1730763,59.2610996 25.6763251,58.9933978 25.4506102,58.789099 C24.7353767,58.1400396 24.0060537,57.5064787 23.2902097,56.8588282 C22.0681745,55.7532667 20.6517972,54.5086882 19.7764593,53.0973832 C19.4280243,52.535679 19.3145563,51.8049001 19.1305465,51.1840198 C18.9968835,50.7331536 18.7573139,50.2874536 18.6876175,49.8220282 L18.5467218,49.8220282 C18.5284054,49.188937 18.2235541,48.6347473 18.0646237,48.0373496 C17.6852856,46.611955 17.237707,45.1137642 16.9622559,43.6653566 C16.7262087,42.4242066 16.5856887,41.036572 16.6723396,39.7714696 C16.7049335,39.2949604 16.8641456,38.8372843 16.9029389,38.3625128 C17.2122988,38.4326319 17.3644661,38.6476857 17.6092489,38.8261066 C18.1071742,39.1890539 18.5697348,39.6003284 19.0633393,39.9772243 C20.7824545,41.2899963 22.4411724,42.6898888 24.182549,43.9856595 C24.6293292,44.3181733 25.059108,44.6779269 25.4975754,45.0217124 C25.6632687,45.151806 25.8950421,45.4096451 26.1081234,45.4467477 C26.3046728,45.4810323 26.5215582,45.2424489 26.6717061,45.1419434 L28.0336977,44.2331662 C29.7747456,43.0670196 31.5357537,41.6930049 33.4346988,40.7753044 C33.8565404,40.5714284 34.4298919,40.5618005 34.8906208,40.5149762 C35.6424402,40.4386107 36.3952458,40.3270213 37.1449517,40.2324803 C38.5067554,40.0607754 39.8679016,39.7896452 41.2309265,39.6366325 C42.4604761,39.4985547 43.7257193,39.4805201 44.9411794,39.2548521 L44.9411794,39.3018174 C44.3390852,39.4785945 43.7684577,39.9513934 43.2504312,40.2958834 C42.2002887,40.9939745 41.1594454,41.7122137 40.2404768,42.576233 C37.2123938,45.4223258 34.2996574,48.3017638 32.8856283,52.3111853 C32.3977066,53.6947808 32.0727072,55.1600959 32.0727072,56.6319861 C32.0727072,56.9372601 31.9266453,57.7798163 32.1479924,58.0066583 C32.3507883,58.2147143 32.8790062,58.2978427 33.1529074,58.3790926 C34.017866,58.6359924 35.024096,58.6993954 35.9238558,58.5984202 C36.3734539,58.5481674 36.7790456,58.4166648 37.2388822,58.4166648 L35.5200488,66.8234404 L34.5377711,71.1912065 L33.9982815,73.7273288 L34.4751194,72.6471286 L35.5983398,69.5474236 L39.0589726,60.5770652 L40.1526048,57.6652211 L40.4794828,56.7728818 C39.1047637,56.5878388 37.6896074,56.2975937 36.2995776,56.256734 C35.9107995,56.2454623 34.8715999,56.1482443 34.6571097,55.7776887 C34.3921788,55.3202474 34.7963146,54.3673229 34.7966903,53.8610377 L34.937586,53.8610377 C35.1650856,52.3135335 36.0091447,50.7721348 36.7952486,49.4463064 C38.9861295,45.7510823 42.3449416,42.8444044 45.8804839,40.4759011 C47.3303005,39.504848 48.8782744,38.4307063 50.5300414,37.8370189 C51.5839411,37.4582913 52.7651166,37.2842382 53.8641029,37.0808788 C54.3924617,36.9830032 54.914715,36.786125 55.4613902,36.7247884 C56.3293076,36.6273356 57.2362062,36.6476245 58.091443,36.4369385 L58.091443,36.3899733 C57.1967554,36.3009272 56.2536936,36.2102374 55.3674598,36.0330376 C55.0532624,35.9701981 54.6686172,35.9593961 54.3830686,35.8078863 C53.9012054,35.5522076 53.3427888,34.7404606 53.3141401,34.1826076 C53.2925361,33.7639126 53.5607075,33.2967025 53.7039514,32.9145465 C54.0782643,31.9127312 54.6498311,30.9329427 54.9447727,29.908772 C54.4497592,30.1397 54.0792036,30.7107971 53.6767116,31.0749186 C52.5847701,32.0627382 51.3350254,33.1687223 49.8725282,33.5363661 C49.4211924,33.6498341 48.9581153,33.5349102 48.5105366,33.4863012 C47.6468461,33.3924177 46.7789287,33.210991 45.9274492,33.0376893 C45.5935264,32.9696837 45.2844952,32.8078415 44.9411794,32.7736508 L44.9411794,32.6327551 C43.8492379,32.4448473 42.6882574,31.8231216 41.7005787,31.3293292 C41.4272411,31.1926604 40.8296556,31.0503557 40.6667801,30.7922349 C40.5402558,30.5916933 40.55087,30.2777778 40.5053607,30.0496676 C40.3807149,29.425171 40.3265171,28.7963066 40.2069436,28.1710586 C40.0914091,27.5671327 40.0567958,26.9543304 40.0567958,26.3394147 C40.0567958,26.0912505 40.0096897,25.790673 40.2083995,25.6022015 C40.4964842,25.3290518 41.1388276,25.2512304 41.5127178,25.1385608 C42.6779251,24.7875897 43.855813,24.4635296 45.0351098,24.1565649 C48.3057682,23.3051793 51.5520047,22.3150583 54.8038771,21.3880117 C55.7577408,21.1159891 56.7101956,20.8403972 57.6687559,20.5822763 C58.1665873,20.4482375 58.6944765,20.273339 59.2186084,20.3414386 C60.0602253,20.4507737 61.0929906,20.6678 61.6979027,21.3185032 C62.176948,21.8339935 62.3408567,22.9486662 62.5630022,23.6154315 C63.1336297,25.3319167 63.7728265,27.0267508 64.3613008,28.7346413 C65.3790372,31.6867346 66.4155598,34.6155801 67.290522,37.6110692 C67.4699291,38.2242472 67.6117641,38.8991375 67.8498778,39.4896783 C68.0227099,39.919551 68.3514664,40.5074617 68.2119797,40.9925655 C68.0781288,41.4581788 67.4891849,41.9254358 67.1557318,42.2606267 C66.3192811,43.1013042 65.504904,43.9584196 64.6665747,44.7967489 C62.5413982,46.9219255 60.3669082,48.991683 58.221067,51.0882107 C57.5156493,51.7776603 56.8863152,52.5605706 56.1522487,53.2265375 C55.3176766,53.983617 54.5732778,54.854822 53.71945,55.5902974 C53.3296386,55.9260988 53.000882,56.2600215 52.6425373,56.6319861 C52.4682963,56.8128023 52.1977766,57.0001935 52.108073,57.2425341 C51.9361803,57.7093684 52.2447418,58.2823442 52.2658762,58.7454214 C52.3316275,60.1764518 52.447162,61.6074823 52.6782309,63.019257 C52.771222,63.586597 52.7374071,64.1839946 52.7923564,64.7569704 C52.9257376,66.1523073 53.1431866,67.5401298 53.2930057,68.9368756 C53.3756645,69.7118019 53.3545302,70.5078625 53.447991,71.2809101 C53.5625861,72.2300773 53.6175354,73.1942734 53.7321306,74.1500158 C53.8068053,74.7699568 53.958503,75.3532649 53.958503,75.9816597 C54.9907987,75.7895719 55.9676754,75.2734241 56.9173123,74.8333599 C59.1528571,73.797307 61.1610902,72.4987184 63.1425531,71.0625218 C73.5984216,63.4856217 79.3887644,50.613862 78.1972566,37.7989301 C78.0136226,35.8224925 77.8323368,33.9201659 77.3589273,31.975242 C74.3385936,19.5627082 64.8060615,9.39670907 52.6904418,5.36263089 C48.4015773,3.93451227 43.7290069,3.36529372 39.2114217,3.56311125 C25.3443748,4.1704186 12.174198,12.9890793 6.67804535,25.8697624 C5.40167138,28.8609778 4.47462476,32.0556464 3.9557999,35.2628078 C3.53982888,37.8340601 3.59026954,40.4685275 3.70387842,43.0590355 C4.13675692,52.9301869 8.68951906,62.4805659 16.1808485,68.968812 C18.3203964,70.8220598 20.6065697,72.674838 23.1920994,73.8884195 C23.8335504,74.1894666 24.456826,74.7276881 25.1688188,74.8544942 Z" id="path182" fill="#D84E52"></path>
                    <path d="M57.4339298,19.3415959 C57.3695874,18.6087975 56.8050654,17.7575057 56.5058969,17.087265 C55.775118,15.4506677 55.1316943,13.7724593 54.3013491,12.2028814 C54.0430404,11.7151475 53.7833227,11.2200401 53.5555413,10.7180757 C53.4611412,10.5103485 53.4320228,10.2208079 53.1929698,10.1177662 C52.7359981,9.92088797 51.9991137,10.3116387 51.5628067,10.443564 C50.3078959,10.8227143 49.0177611,11.1627895 47.759093,11.5251732 C46.5887195,11.8621017 45.5122765,12.2721081 44.3775967,12.7023566 C44.0211306,12.8375225 43.2692173,13.0021356 43.0639793,13.3453575 C42.8812845,13.6503027 43.2053446,14.1804462 43.3298024,14.4572123 C43.7553074,15.3999453 44.2817876,16.2997051 44.7152766,17.2299923 C45.2215618,18.3166268 45.9589159,19.3042116 46.4079034,20.4217961 C46.5666459,20.8166797 46.7577944,21.1741321 46.9606841,21.5489616 C47.0358285,21.6877438 47.1151997,21.9337946 47.2607919,22.0130719 C47.4575762,22.1201526 47.8877777,21.9206444 48.0878496,21.8640982 C48.793737,21.6646369 49.509487,21.5156632 50.2012848,21.268814 C51.1936601,20.9146962 52.2710424,20.7675071 53.3009898,20.4961421 C54.6855247,20.1314571 56.0587879,19.6867433 57.4339298,19.3415959 L57.4339298,19.3415959 Z" id="path292" fill="#FFFFFF"></path>
                    <path d="M38.5539085,29.5330502 L38.6008737,29.5330502 C38.5544721,28.4517228 38.3195051,27.3795066 38.3190824,26.2924495 C38.3189415,25.8949828 38.266904,25.3866781 38.4665532,25.0245762 C38.7519609,24.5068785 39.7226382,24.3511888 40.2446567,24.1879846 C41.9058168,23.6686901 43.647757,22.9669357 45.3638664,22.676127 L45.5047621,22.5352313 C45.1614463,21.5971009 44.5912884,20.708284 44.150285,19.8112482 C43.6012615,18.6946969 43.1344271,17.5187345 42.606538,16.3827866 C42.3656063,15.8638208 42.1246747,15.3445263 41.8677749,14.8329341 C41.7705569,14.6384041 41.6601886,14.3341634 41.4610561,14.2237012 C41.2741345,14.1201898 40.9678272,14.175327 40.7612742,14.1754209 C40.0771787,14.1757027 39.4248317,14.2967321 38.7845547,14.519676 C36.8998871,15.1758742 35.1642402,15.8222566 33.5286292,17.0252239 C33.0567696,17.372297 32.5590791,17.6864943 32.1196724,18.075883 C31.9679278,18.2103445 31.7006487,18.368946 31.6792325,18.5901992 C31.6467795,18.9252022 31.9127906,19.3919426 32.0727072,19.6703525 C32.4825727,20.3839421 32.9003754,21.0984711 33.3564077,21.7837877 C35.0745836,24.365748 36.8338071,26.9357322 38.5539085,29.5330502 L38.5539085,29.5330502 Z" id="path344" fill="#FFFFFF"></path>
                    <path d="M41.3248569,37.8458953 C41.2149583,37.3328472 40.8421013,37.0125913 40.6128641,36.5752981 C40.0696173,35.5388695 39.5167896,34.5273794 38.9197676,33.5171104 C37.028384,30.316618 35.1518414,27.1176285 33.1384421,23.9911534 C32.4689528,22.9514841 31.7883327,21.9208322 31.1020768,20.8914484 C30.8612392,20.5301449 30.5356762,19.8298934 30.1452543,19.6247023 C29.5192078,19.2956639 28.518097,19.9279567 27.9397672,20.1374686 C26.2730183,20.7413005 24.7442532,21.8357312 23.4646855,23.055606 C22.9795348,23.5181666 22.4010641,24.0773346 22.117535,24.6956318 C21.8283701,25.326093 22.1004866,25.5962839 22.3598286,26.1533855 C22.7278951,26.9442329 23.1954339,27.6631296 23.6569142,28.4058847 C25.410361,31.22826 27.6057505,33.6936057 29.5718088,36.3430081 C30.150984,37.1235232 30.7269656,37.9153569 31.4621592,38.5638058 C31.6674442,38.7448567 31.9003918,39.1201559 32.1708175,39.192952 C32.9622755,39.4059393 33.9244991,39.0910374 34.7027599,38.9828765 C36.2237757,38.771533 37.738874,38.5625377 39.2583869,38.286711 C39.9448776,38.1620652 40.6294428,37.9065274 41.3248569,37.8458953 L41.3248569,37.8458953 Z" id="path414" fill="#FFFFFF"></path>
                    <path d="M20.1435395,27.1151863 C19.1236896,27.3326823 18.2333228,28.1521785 17.4665216,28.8087994 C16.609641,29.5426311 15.8802241,30.3683737 15.2050989,31.2700591 C14.8066459,31.8022221 14.4237854,32.356083 14.4627666,33.0554422 C14.5114225,33.9277273 15.5907304,34.7004462 16.1514483,35.2628078 C17.822518,36.9386211 19.5677928,38.439207 21.361113,39.9732323 C22.5052799,40.9518937 23.6538145,41.9110175 24.8400622,42.8340721 C25.3017304,43.1928864 25.804728,43.7400313 26.4368799,43.5977267 C27.7034851,43.3131174 28.9938548,42.2789431 29.9611036,41.4577561 C30.2481081,41.2141005 30.8625542,40.76098 30.8345159,40.3350524 C30.815495,40.0462162 30.6184759,39.8958336 30.4702536,39.6757075 C30.0715189,39.083476 29.6102264,38.5509843 29.1864592,37.9826111 C27.5536661,35.7924347 25.9617797,33.5606002 24.3174801,31.364694 C23.4913148,30.2613399 22.6639284,29.1679894 21.8178968,28.0771281 C21.3561347,27.4818439 20.9677793,26.9393955 20.1435395,27.1151863 Z" id="path546" fill="#FFFFFF"></path>
                </g>
            </g>
            <text id="Entlassung" font-family="STHeitiSC-Medium, Heiti SC" font-size="36" font-weight="bold" fill="#FFFFFF">
                <tspan x="37.9549675" y="69">Entlassung</tspan>
            </text>
            <path d="M213.374925,191.935905 C213.374925,193.930786 213.063641,195.742954 212.573825,197.183396 C213.973929,200.395623 216.43884,202.687309 220.664247,205.065787 C224.781636,202.87362 227.141047,200.723232 228.477833,197.529083 C227.915705,196.042366 227.565836,194.090206 227.565836,191.935905 C227.565836,188.278337 228.566964,185.170756 229.940806,184 C228.055472,184.419303 226.169689,184.733825 224.284445,184.926163 L221.10689,191.012665 L223.196659,191.941526 L218.022289,200.456423 L219.887116,192.829689 L218.873936,192.368744 L215.664182,193.265361 L218.335686,191.006954 L220.298954,185.144044 C217.199602,185.159649 214.099351,184.806407 211,184 C212.373752,185.170756 213.374925,188.278337 213.374925,191.935905 Z" id="Shape" fill="#D84E52"></path>
            <path d="M306.661374,237.632706 C302.892184,237.18182 301.099195,236.677522 301.099195,235.044144 C301.099195,232.507129 304.813732,232.233243 306.41171,232.233243 C308.772966,232.233243 311.382644,233.370397 312.228523,234.768395 L312.600535,235.385104 L318.157747,232.812689 L317.79505,232.073632 C315.881576,228.160977 312.500545,226.962339 309.871614,226.472947 L309.871614,223 L303.373503,223 L303.373503,226.453694 C297.766607,227.344289 294.445198,230.517886 294.445198,235.044144 C294.445198,242.51483 301.429597,243.294876 306.047771,243.810353 C310.128111,244.293535 312.110522,245.303372 312.110522,246.898245 C312.110522,250.043895 307.630843,250.287349 306.257067,250.287349 C303.16607,250.287349 300.192453,248.762035 299.340363,246.738633 L299.026109,245.994608 L293,248.549012 L293.31736,249.291796 C294.981169,253.190166 298.537959,255.651412 303.373503,256.278057 L303.373503,260.018058 L309.871614,260.018058 L309.871614,256.09112 C314.527052,255.498632 318.993689,252.505762 318.993689,246.897003 C318.995552,239.149947 311.573929,238.236994 306.661374,237.632706 Z" id="Shape" fill="#D84E52"></path>
            <path d="M324.58183,296.927031 L323.110754,299.422559 C321.919255,301.441107 321.323506,302.450381 321.323506,302.450381 C321.323506,302.450381 320.997299,302.944335 320.997299,303.80748 C320.997299,304.670475 320.99655,325.224353 320.99655,325.224353 C320.99655,326.055447 320.322869,326.730176 319.492374,326.730176 C318.660981,326.730176 317.987749,326.056645 317.987749,325.224353 C317.987749,325.224353 317.987749,315.102355 317.987749,314.60271 C317.987749,314.343302 317.740473,314.184692 317.502632,314.178551 C317.264642,314.184692 317.017965,314.343302 317.017965,314.60271 C317.017965,315.102055 317.017965,325.224353 317.017965,325.224353 C317.017965,326.056645 316.344134,326.730176 315.513489,326.730176 C314.682695,326.730176 314.008864,326.055447 314.008864,325.224353 C314.008864,325.224353 314.008115,304.670325 314.008115,303.80748 C314.008115,302.944335 313.682507,302.450381 313.682507,302.450381 C313.682507,302.450381 310.861073,297.647592 309.306573,295.001542 C307.974337,297.269563 306.775099,299.310827 306.775099,299.310827 C306.775099,299.310827 306.407405,299.868734 306.407405,300.843311 C306.407405,301.817887 306.406507,325.029647 306.406507,325.029647 C306.406507,325.968278 305.645657,326.730176 304.707176,326.730176 C303.768844,326.730176 303.007994,325.969626 303.007994,325.029647 C303.007994,325.029647 303.007994,313.598778 303.007994,313.034431 C303.007994,312.748513 302.742745,312.572379 302.480342,312.557702 C302.218089,312.572379 301.952839,312.748663 301.952839,313.034431 C301.952839,313.598778 301.952839,325.029647 301.952839,325.029647 C301.952839,325.969626 301.19199,326.730176 300.253658,326.730176 C299.315327,326.730176 298.554477,325.968428 298.554477,325.029647 C298.554477,325.029647 298.553578,301.817887 298.553578,300.843311 C298.553578,299.868734 298.185734,299.310827 298.185734,299.310827 C298.185734,299.310827 296.986497,297.269563 295.654112,295.001542 C294.099761,297.647442 291.278327,302.450381 291.278327,302.450381 C291.278327,302.450381 290.952719,302.944335 290.952719,303.80748 C290.952719,304.670475 290.95197,325.224353 290.95197,325.224353 C290.95197,326.055447 290.278139,326.730176 289.447345,326.730176 C288.6167,326.730176 287.942869,326.056645 287.942869,325.224353 C287.942869,325.224353 287.942869,315.102355 287.942869,314.60271 C287.942869,314.343302 287.696042,314.184692 287.458202,314.178551 C287.220361,314.184692 286.973085,314.343302 286.973085,314.60271 C286.973085,315.102055 286.973085,325.224353 286.973085,325.224353 C286.973085,326.056645 286.299703,326.730176 285.46846,326.730176 C284.637965,326.730176 283.964284,326.055447 283.964284,325.224353 C283.964284,325.224353 283.963535,304.670475 283.963535,303.807629 C283.963535,302.944335 283.637328,302.450381 283.637328,302.450381 C283.637328,302.450381 283.041578,301.441107 281.85008,299.422559 L280.380052,296.927031 C279.024302,294.521368 278.284969,293.205058 278.162055,292.978101 C278.059161,292.779651 278,292.554541 278,292.315353 C278,291.518408 278.645973,290.872434 279.442919,290.872434 C279.97147,290.872434 280.432323,291.157453 280.733967,291.673573 C280.958777,292.08575 284.987986,299.19685 285.04505,299.296599 C285.182392,299.536386 285.21654,299.628347 285.505903,299.38182 C285.800358,299.165847 286.380281,298.890413 287.484712,298.87244 C288.536571,298.890413 289.116345,299.165847 289.4108,299.38182 C289.699863,299.628497 289.734011,299.536386 289.871653,299.296599 C289.97979,299.107285 292.786097,294.20939 293.972604,292.13832 C293.061681,290.587565 291.876373,288.430675 291.877121,288.430226 C291.739929,288.192086 291.660099,287.916653 291.660099,287.622048 C291.660099,286.726102 292.386352,286 293.282147,286 C293.899514,286 294.436153,286.345078 294.710238,286.852661 C294.818375,287.042424 299.622063,295.480967 299.775431,295.749212 C299.931046,296.020002 299.969538,296.123945 300.295745,295.845516 C300.628392,295.601685 301.283202,295.290455 302.490976,295.270236 C303.678531,295.290455 304.333491,295.601685 304.666138,295.845516 C304.992494,296.123945 305.030836,296.020002 305.186451,295.749212 C305.339969,295.481117 310.143507,287.042574 310.251644,286.852661 C310.525729,286.345078 311.062368,286 311.679735,286 C312.575381,286 313.301783,286.726252 313.301783,287.622048 C313.301783,287.916503 313.222103,288.192086 313.08551,288.430675 C313.08551,288.430675 311.900202,290.587565 310.989279,292.13832 C312.175785,294.20939 314.981943,299.107285 315.090229,299.296599 C315.228021,299.536386 315.262169,299.628347 315.551082,299.38182 C315.845388,299.165847 316.425311,298.890413 317.529741,298.87244 C318.581601,298.890413 319.161524,299.165847 319.455979,299.38182 C319.745192,299.628497 319.77949,299.536386 319.916833,299.296599 C319.973896,299.19685 324.003105,292.08575 324.278089,291.581312 C324.529559,291.157453 324.990413,290.872434 325.518814,290.872434 C326.315909,290.872434 326.961882,291.518408 326.961882,292.315353 C326.961882,292.554541 326.902871,292.779501 326.779009,293.017491 C326.669974,293.218288 325.937581,294.521468 324.58183,296.927031 Z M317.498289,298.048685 C315.565311,298.014238 314.009014,296.437721 314.009014,294.496655 C314.009014,292.55559 315.565461,290.979372 317.498289,290.944925 L317.498289,290.944475 C317.499787,290.944475 317.502033,290.944475 317.503531,290.944475 C317.505478,290.944475 317.507125,290.944475 317.509072,290.944475 L317.509072,290.944925 C319.4422,290.979372 320.998647,292.55559 320.998647,294.496655 C320.998647,296.437721 319.44235,298.014238 317.509072,298.048685 L317.509072,298.049434 C317.507125,298.049434 317.505478,298.049135 317.503531,298.049135 C317.502033,298.049135 317.499787,298.049434 317.498289,298.049434 L317.498289,298.048685 Z M302.481241,294.339393 C300.304881,294.293263 298.554627,292.516199 298.554477,290.328606 C298.554477,288.141313 300.304731,286.364249 302.481241,286.318119 C304.657601,286.364249 306.408154,288.141313 306.408154,290.328606 C306.408154,292.516199 304.65775,294.293263 302.481241,294.339393 Z M287.453559,298.048685 L287.453559,298.049434 C287.455356,298.049434 287.457153,298.049135 287.4591,298.049135 C287.460598,298.049135 287.462845,298.049434 287.464342,298.049434 L287.464342,298.048685 C289.39717,298.014238 290.953617,296.437721 290.953617,294.496655 C290.953617,292.55559 289.39717,290.979372 287.464342,290.944925 L287.464342,290.944475 C287.462845,290.944475 287.460598,290.944475 287.4591,290.944475 C287.457153,290.944475 287.455356,290.944475 287.453559,290.944475 L287.453559,290.944925 C285.520281,290.979372 283.963984,292.55559 283.963984,294.496655 C283.963984,296.437721 285.520281,298.014238 287.453559,298.048685 Z" id="Combined-Shape" fill="#D84E52" fill-rule="nonzero"></path>
            <path d="M337.444039,156.445161 L292.555961,156.445161 C291.184381,156.445161 290.062179,157.567363 290.062179,158.938943 L290.062179,185.123655 C290.062179,186.495236 291.184381,187.617438 292.555961,187.617438 L305.024872,187.617438 L305.024872,197.031465 C305.024872,197.530221 305.585973,197.841944 306.022384,197.530221 L319.987564,187.617438 L337.444039,187.617438 C338.815619,187.617438 339.937821,186.495236 339.937821,185.123655 L339.937821,158.938943 C339.937821,157.567363 338.815619,156.445161 337.444039,156.445161 Z" id="Shape" fill="#D84E52" fill-rule="nonzero"></path>
        </g>
        <text id="Angebot" font-family="STHeitiSC-Light, Heiti SC" font-size="48" font-weight="300" fill="#000000">
            <tspan x="28.124" y="41">Angebot</tspan>
        </text>
        <text id="Nebenangebot" font-family="STHeitiSC-Light, Heiti SC" font-size="48" font-weight="300" fill="#000000">
            <tspan x="417.524" y="41">Nebenangebot</tspan>
        </text>
        <g id="Nebenangebot" filter="url(#filter-4)" transform="translate(1953.500000, 142.000000)">
            <rect id="Rectangle" fill="#F4F4F4" x="0" y="0" width="257" height="367" rx="3"></rect>
            <rect id="Rectangle-2" fill="#FFFFFF" x="14" y="172" width="229.169935" height="182.140297" rx="3"></rect>
            <path d="M201.197569,158 L240.169935,158 C241.826789,158 243.169935,156.656854 243.169935,155 L243.169935,19 C243.169935,17.3431458 241.826789,16 240.169935,16 L240.169935,16 L17,16 L17,16 C15.3431458,16 14,17.3431458 14,19 L14,19 L14,155 C14,156.656854 15.3431458,158 17,158 L56.1569267,158 C62.8429926,124.053408 92.7700801,98.4496407 128.677248,98.4496407 C164.584416,98.4496407 194.511503,124.053408 201.197569,158 Z" id="Combined-Shape" fill="#D9D9D9"></path>
            <text id="Das-Nebenangebot-akz" font-family="STHeitiSC-Light, Heiti SC" font-size="18" font-weight="300" fill="#D9D9D9">
                <tspan x="112.665" y="261">Das </tspan>
                <tspan x="60.384" y="279">Nebenangebot </tspan>
                <tspan x="77.772" y="297">akzeptieren </tspan>
            </text>
            <g id="Group-2" transform="translate(69.000000, 113.000000)">
                <circle id="Oval" fill="#FFFFFF" cx="60.0487362" cy="60.0487362" r="60.0487362"></circle>
                <path d="M86.7933361,44.8357597 L55.6357622,81.6842781 C53.9847756,83.6443056 51.0475551,83.9579101 48.935828,82.4682891 C48.7534515,82.3408873 48.5710751,82.2134855 48.4078962,82.0664835 L31.7828445,67.2682753 C29.8150987,65.5140506 29.6231236,62.4760078 31.3509003,60.4865799 C33.078677,58.4873517 36.07349,58.291349 38.0412358,60.0455737 L51.172339,71.7371381 L79.1239271,38.6812731 C80.8421051,36.6428444 83.9521032,36.3782407 86.0734291,38.0736645 C88.194755,39.7788885 88.511514,42.8071311 86.7933361,44.8357597 Z" id="Path" fill="#D9D9D9"></path>
            </g>
            <text id="Akzeptieren" font-family="STHeitiSC-Medium, Heiti SC" font-size="30" font-weight="bold" fill="#FFFFFF">
                <tspan x="42.3499675" y="69">Akzeptieren</tspan>
            </text>
        </g>
        <g id="Nebenangebot" filter="url(#filter-5)" transform="translate(1954.000000, 595.000000)">
            <rect id="Rectangle" fill="#F4F4F4" x="0" y="0" width="257" height="367" rx="3"></rect>
            <rect id="Rectangle-2" fill="#FFFFFF" x="14" y="172" width="229.169935" height="182.140297" rx="3"></rect>
            <path d="M201.197569,158 L240.169935,158 C241.826789,158 243.169935,156.656854 243.169935,155 L243.169935,19 C243.169935,17.3431458 241.826789,16 240.169935,16 L240.169935,16 L17,16 L17,16 C15.3431458,16 14,17.3431458 14,19 L14,19 L14,155 C14,156.656854 15.3431458,158 17,158 L56.1569267,158 C62.8429926,124.053408 92.7700801,98.4496407 128.677248,98.4496407 C164.584416,98.4496407 194.511503,124.053408 201.197569,158 Z" id="Combined-Shape" fill="#D9D9D9"></path>
            <text id="Das-Nebenangebot-abl" font-family="STHeitiSC-Light, Heiti SC" font-size="18" font-weight="300" fill="#D9D9D9">
                <tspan x="112.665" y="261">Das </tspan>
                <tspan x="60.384" y="279">Nebenangebot </tspan>
                <tspan x="86.745" y="297">ablehnen</tspan>
            </text>
            <g id="Group-2" transform="translate(69.000000, 113.000000)">
                <circle id="Oval" fill="#FFFFFF" cx="60.0487362" cy="60.0487362" r="60.0487362"></circle>
                <path d="M59.623352,31.9252027 C61.1531937,31.9252027 62.459156,32.4600254 63.5412391,33.5421085 C64.6233223,34.6241916 65.1581449,35.930154 65.1581449,37.4599956 L65.1581449,54.076812 L81.7749614,54.076812 C83.304803,54.076812 84.6107654,54.6116347 85.6928485,55.6937178 C86.7749316,56.7758009 87.3097543,58.0817633 87.3097543,59.6116049 C87.3097543,61.1414466 86.7749316,62.447409 85.6928485,63.5294921 C84.6107654,64.6115752 83.304803,65.1463979 81.7749614,65.1463979 L65.1581449,65.1463979 L65.1581449,81.7632143 C65.1581449,83.2930559 64.6233223,84.5990183 63.5412391,85.6811014 C62.459156,86.7631845 61.1531937,87.2980072 59.623352,87.2980072 C58.0935104,87.2980072 56.787548,86.7631845 55.7054649,85.6811014 C54.6233818,84.5990183 54.0885591,83.2930559 54.0885591,81.7632143 L54.0885591,65.1588356 L37.4593049,65.1588356 C35.9294633,65.1588356 34.6235009,64.6240129 33.5414178,63.5419298 C32.4593347,62.4598467 31.924512,61.1538843 31.924512,59.6240427 C31.924512,58.0942011 32.4593347,56.7882387 33.5414178,55.7061556 C34.6235009,54.6240725 35.9294633,54.0892498 37.4593049,54.0892498 L54.0761214,54.0892498 L54.0761214,37.4599956 C54.0761214,35.930154 54.6109441,34.6241916 55.6930272,33.5421085 C56.787548,32.4600254 58.0935104,31.9252027 59.623352,31.9252027 Z" id="Path" fill="#D9D9D9" transform="translate(59.617133, 59.611605) rotate(-315.000000) translate(-59.617133, -59.611605) "></path>
            </g>
            <text id="Ablehnen" font-family="STHeitiSC-Medium, Heiti SC" font-size="30" font-weight="bold" fill="#FFFFFF">
                <tspan x="57.3049675" y="69">Ablehnen</tspan>
            </text>
        </g>
        <g id="Nebenangebot" filter="url(#filter-6)" transform="translate(1953.000000, 1048.000000)">
            <rect id="Rectangle" fill="#F4F4F4" x="0" y="0" width="257" height="367" rx="3"></rect>
            <rect id="Rectangle-2" fill="#FFFFFF" x="14" y="172" width="229.169935" height="182.140297" rx="3"></rect>
            <path d="M201.197569,158 L240.169935,158 C241.826789,158 243.169935,156.656854 243.169935,155 L243.169935,19 C243.169935,17.3431458 241.826789,16 240.169935,16 L240.169935,16 L17,16 L17,16 C15.3431458,16 14,17.3431458 14,19 L14,19 L14,155 C14,156.656854 15.3431458,158 17,158 L56.1569267,158 C62.8429926,124.053408 92.7700801,98.4496407 128.677248,98.4496407 C164.584416,98.4496407 194.511503,124.053408 201.197569,158 Z" id="Combined-Shape" fill="#D9D9D9"></path>
            <text id="In-Verhandlung-gehen" font-family="STHeitiSC-Light, Heiti SC" font-size="18" font-weight="300" fill="#D9D9D9">
                <tspan x="62.238" y="261">In Verhandlung </tspan>
                <tspan x="100.263" y="279">gehen</tspan>
            </text>
            <g id="Group-2" transform="translate(69.000000, 113.000000)">
                <circle id="Oval" fill="#FFFFFF" cx="60.0487362" cy="60.0487362" r="60.0487362"></circle>
                <path d="M38.8161738,85.9142315 C36.428566,85.6854301 34.5329836,85.0916148 32.746763,84.0129278 C30.3345489,82.5561952 28.3155694,80.2105503 26.9892045,77.3238003 C26.5910645,76.4572748 26.0784757,75.0503513 26.0784757,74.8240846 C26.0784757,74.739364 26.1020038,74.7380945 27.6745143,74.7380945 C29.1516519,74.7380945 29.2733877,74.7325393 29.3086106,74.6635428 C29.3295426,74.6225393 31.3152678,68.6406468 33.7213332,61.3704464 L38.0959976,48.1519009 L37.8848888,47.8362663 C37.53867,47.3186267 37.4042605,46.8785137 37.4032321,46.2591242 C37.4014642,45.1943536 37.992976,44.2592055 38.9652773,43.7896143 C39.2887526,43.6333854 39.7997533,43.5111291 40.1243584,43.5123053 C40.5769646,43.5139454 41.1401953,43.6948165 41.5889683,43.9826377 C41.696457,44.0515759 41.8229973,44.1079797 41.8701693,44.1079797 C42.0420303,44.1079797 43.5128182,43.001884 45.4406287,41.4228406 C46.894835,40.231721 47.5785469,39.72726 48.4439989,39.2068697 C49.4071222,38.6277518 50.4745115,38.19503 51.4459803,37.9898593 C52.1442618,37.8423845 53.4402778,37.8029841 54.2654037,37.9041457 C54.5735026,37.9419187 54.8547842,37.9840294 54.8904753,37.9977248 C54.9722991,38.029123 55.0303898,37.9623574 55.356428,37.4622243 C55.8764498,36.6645287 56.7923031,35.8904806 57.6760906,35.501723 C59.8707405,34.5363483 62.3681557,34.9877838 64.0385152,36.6518021 C64.2884553,36.9007964 64.5470902,37.213846 64.7080581,37.4622243 C65.031455,37.9612332 65.0904105,38.0292124 65.1724685,37.9977248 C65.2081554,37.9840294 65.489437,37.9419187 65.7975359,37.9041457 C66.6226618,37.8029841 67.9186779,37.8423845 68.6169593,37.9898593 C69.9361971,38.2684775 71.2733614,38.8991823 72.6839656,39.90816 C73.3047473,40.3521936 73.6559926,40.6285386 74.9938087,41.7254627 C76.4794928,42.9436246 78.0406063,44.1079797 78.1881847,44.1079797 C78.2328306,44.1079797 78.3963417,44.0313954 78.5515371,43.9377925 C79.3863846,43.4342713 80.2437211,43.3850629 81.0976623,43.7916528 C82.0650202,44.2522428 82.6607142,45.1926964 82.6607227,46.25933 C82.660727,46.8732129 82.524489,47.3182974 82.1780151,47.8363174 L81.9668718,48.1520028 L86.3414871,61.3704975 C88.7475275,68.6406698 90.7332664,74.6225393 90.7542474,74.6635428 C90.7895466,74.7325393 90.9113172,74.7380945 92.3884258,74.7380945 C93.9609351,74.7380945 93.9844636,74.7393725 93.9844636,74.8240846 C93.9844636,74.8713803 93.9150197,75.1253887 93.8301415,75.3885478 C92.7610994,78.7030715 90.6950831,81.6424805 88.1587732,83.4574193 C86.5222602,84.6284781 84.5997667,85.4152588 82.5673967,85.7456935 C81.5582984,85.9097627 81.387626,85.9208517 79.883534,85.9201062 C78.2655268,85.9192968 77.9866181,85.8959046 76.7989875,85.6613051 C72.2236022,84.7574909 68.600575,81.6477332 66.5449065,76.8598925 C66.2921676,76.2712319 65.8252053,74.9369048 65.8252053,74.8033592 C65.8252053,74.7459033 66.0157638,74.7380945 67.417524,74.7380945 C68.640654,74.7380945 69.0195558,74.7257487 69.0517152,74.6848433 C69.0957306,74.6288698 77.8386861,48.2394434 77.8386861,48.162575 C77.8386861,48.1381327 77.7763822,48.0180678 77.7002329,47.8957642 C77.6240836,47.7734605 77.5025345,47.4894222 77.4301256,47.2645686 L77.2984672,46.8557439 L76.8444854,46.5788374 C76.1007018,46.1251645 75.6999969,45.80965 73.9634226,44.3102909 C70.7335131,41.5215897 68.7424533,40.4548684 66.9328312,40.543617 C66.4121107,40.5691545 65.7504448,40.6724202 65.684409,40.7384573 C65.6625419,40.7603214 65.6272257,40.9519743 65.6059209,41.1643527 C65.3883619,43.3333645 63.8979746,45.2019686 61.8207116,45.9101394 C61.2082882,46.1189243 60.8360748,46.1737659 60.0314698,46.1737659 C59.226409,46.1737659 58.850813,46.1183748 58.2452612,45.9103413 C56.9387483,45.4615011 55.8312417,44.5481268 55.1538177,43.3607961 C54.7939543,42.7300581 54.5308888,41.900828 54.4570187,41.1643527 C54.4357182,40.9519743 54.4003977,40.7603214 54.3785349,40.7384573 C54.3124991,40.6724202 53.650829,40.5691545 53.1301085,40.543617 C51.3222798,40.4549562 49.3205229,41.5266852 46.1057069,44.3044418 C44.3696959,45.804437 43.9635993,46.1243338 43.2184521,46.5788374 L42.7644707,46.8557439 L42.6328154,47.2645686 C42.5604047,47.4894222 42.438856,47.7734605 42.3627067,47.8957642 C42.2865574,48.0180678 42.2242535,48.138203 42.2242535,48.1627314 C42.2242535,48.2398038 50.9670812,74.62884 51.011169,74.6848433 C51.0433711,74.7257487 51.4223155,74.7380945 52.6454114,74.7380945 C54.0471758,74.7380945 54.2377344,74.7459033 54.2377344,74.8033592 C54.2377344,74.9362616 53.7711981,76.2703373 53.5156603,76.8681443 C52.6361329,78.9257341 51.4060888,80.7436719 49.920362,82.1817751 C47.7136474,84.3177549 45.0408567,85.5373405 41.819544,85.8781442 C41.2825738,85.9349569 39.2831199,85.9589796 38.8161738,85.9142315 Z M48.1724474,74.6755989 C48.1856366,74.6412241 46.4053794,69.2399546 44.2163187,62.6727691 C40.7648188,52.3182703 40.2253623,50.7324345 40.1545552,50.7324345 C40.083766,50.7324345 39.5448476,52.3136834 36.1037011,62.6181124 C33.9206399,69.155234 32.1329956,74.5565078 32.1311582,74.6209418 L32.1278183,74.7380945 L40.1381423,74.7380945 C47.139075,74.7380945 48.1514877,74.7302176 48.1724474,74.6755989 Z M87.9317823,74.6209418 C87.9299504,74.5565078 86.1422976,69.155234 83.9592394,62.6181124 C80.5180928,52.3136834 79.9791732,50.7324345 79.9083831,50.7324345 C79.837576,50.7324345 79.2981196,52.3182703 75.846621,62.6727691 C73.6575603,69.2399546 71.877303,74.6412241 71.8904923,74.6755989 C71.9114519,74.7302176 72.9238646,74.7380945 79.9247973,74.7380945 L87.9351222,74.7380945 L87.9317993,74.6209418 L87.9317823,74.6209418 Z M26,74.7854793 C26,74.7226412 26.0320201,74.6969347 26.0711543,74.7283537 C26.1102886,74.7597728 26.1102886,74.8111858 26.0711543,74.8426048 C26.0320201,74.8740239 26,74.8483174 26,74.7854793 Z M94.0337913,74.7854793 C94.0337913,74.7226412 94.0658142,74.6969347 94.1049471,74.7283537 C94.1440799,74.7597728 94.1440799,74.8111858 94.1049471,74.8426048 C94.0658142,74.8740239 94.0337913,74.8483174 94.0337913,74.7854793 Z" id="path4320" fill="#D9D9D9" fill-rule="nonzero"></path>
            </g>
            <text id="Verhandlung" font-family="STHeitiSC-Medium, Heiti SC" font-size="30" font-weight="bold" fill="#FFFFFF">
                <tspan x="33.6049675" y="69">Verhandlung</tspan>
            </text>
        </g>
        <g id="Nebenangebot" filter="url(#filter-7)" transform="translate(1953.000000, 1509.000000)">
            <rect id="Rectangle" fill="#F4F4F4" x="0" y="0" width="257" height="367" rx="3"></rect>
            <rect id="Rectangle-2" fill="#FFFFFF" x="14" y="172" width="229.169935" height="182.140297" rx="3"></rect>
            <path d="M201.197569,158 L240.169935,158 C241.826789,158 243.169935,156.656854 243.169935,155 L243.169935,19 C243.169935,17.3431458 241.826789,16 240.169935,16 L240.169935,16 L17,16 L17,16 C15.3431458,16 14,17.3431458 14,19 L14,19 L14,155 C14,156.656854 15.3431458,158 17,158 L56.1569267,158 C62.8429926,124.053408 92.7700801,98.4496407 128.677248,98.4496407 C164.584416,98.4496407 194.511503,124.053408 201.197569,158 Z" id="Combined-Shape" fill="#D9D9D9"></path>
            <text id="In-den-Arbeitskampf" font-family="STHeitiSC-Light, Heiti SC" font-size="18" font-weight="300" fill="#D9D9D9">
                <tspan x="101.721" y="261">In den </tspan>
                <tspan x="71.229" y="279">Arbeitskampf </tspan>
                <tspan x="100.263" y="297">gehen</tspan>
            </text>
            <g id="Group-2" transform="translate(69.000000, 113.000000)">
                <circle id="Oval" fill="#FFFFFF" cx="60.0487362" cy="60.0487362" r="60.0487362"></circle>
                <g id="Group" transform="translate(19.000000, 19.000000)" fill-rule="nonzero">
                    <path d="M80.6347519,50.8552632 C80.9015144,50.7773009 80.9325115,50.1644047 80.9822946,49.9159587 C81.1823665,48.917478 81.4157836,47.9222848 81.5331967,46.9101841 C81.8910717,43.8273866 82.1536074,40.66921 81.8497423,37.564104 C81.7478278,36.5274875 81.5468166,35.5344078 81.3984065,34.5113642 C80.2101863,26.3190318 76.3416605,18.5139277 70.583254,12.531638 C68.6919643,10.5668477 66.5465928,8.81250861 64.3378181,7.22545966 C63.6295825,6.71673232 62.8584135,6.35571062 62.1313918,5.88929895 C59.2885866,4.0650756 56.0921332,2.62925468 52.8313375,1.7020202 C43.6308496,-0.914130803 33.4806308,-0.617991564 24.6522013,3.32274322 C17.2340437,6.63402655 10.947842,12.0324446 6.49516276,18.8221605 C4.05353453,22.5452349 2.21108868,26.7435505 1.19156753,31.0829026 C0.87906091,32.4129109 0.719050381,33.7394907 0.499018293,35.0749469 C-0.0087697417,38.1573687 -0.137172672,41.3496891 0.223755097,44.4679923 C0.294062042,45.0752527 0.254000703,45.6876793 0.336377712,46.2996362 C0.707543901,49.0560254 1.30733682,51.8086573 2.23480612,54.4246205 C5.24997369,62.9290838 11.076104,70.4731082 18.6876175,75.3861406 C25.7619427,79.9521 33.9437549,82.0476884 42.3111267,81.8992783 C43.5514783,81.8772046 44.8021623,81.6574074 46.0223189,81.5273137 C58.2205973,80.2268465 69.1902654,73.0425758 75.7522469,62.6905004 C77.3885154,60.1088219 78.7162224,57.3181481 79.6954474,54.4246205 C80.0777443,53.2941675 80.6347519,52.0613302 80.6347519,50.8552632 Z" id="path24" fill="#FFFFFF"></path>
                    <path d="M25.1688188,74.8544942 C25.1791981,73.5981744 25.394064,72.393986 25.4487785,71.1442413 C25.5465601,68.9105751 25.575115,66.6449725 25.8831129,64.4282138 C26.0517651,63.2146324 26.1727945,61.9414051 26.2027583,60.7179609 C26.2109772,60.3816899 26.3765296,59.8791619 26.2711397,59.5588591 C26.1730763,59.2610996 25.6763251,58.9933978 25.4506102,58.789099 C24.7353767,58.1400396 24.0060537,57.5064787 23.2902097,56.8588282 C22.0681745,55.7532667 20.6517972,54.5086882 19.7764593,53.0973832 C19.4280243,52.535679 19.3145563,51.8049001 19.1305465,51.1840198 C18.9968835,50.7331536 18.7573139,50.2874536 18.6876175,49.8220282 L18.5467218,49.8220282 C18.5284054,49.188937 18.2235541,48.6347473 18.0646237,48.0373496 C17.6852856,46.611955 17.237707,45.1137642 16.9622559,43.6653566 C16.7262087,42.4242066 16.5856887,41.036572 16.6723396,39.7714696 C16.7049335,39.2949604 16.8641456,38.8372843 16.9029389,38.3625128 C17.2122988,38.4326319 17.3644661,38.6476857 17.6092489,38.8261066 C18.1071742,39.1890539 18.5697348,39.6003284 19.0633393,39.9772243 C20.7824545,41.2899963 22.4411724,42.6898888 24.182549,43.9856595 C24.6293292,44.3181733 25.059108,44.6779269 25.4975754,45.0217124 C25.6632687,45.151806 25.8950421,45.4096451 26.1081234,45.4467477 C26.3046728,45.4810323 26.5215582,45.2424489 26.6717061,45.1419434 L28.0336977,44.2331662 C29.7747456,43.0670196 31.5357537,41.6930049 33.4346988,40.7753044 C33.8565404,40.5714284 34.4298919,40.5618005 34.8906208,40.5149762 C35.6424402,40.4386107 36.3952458,40.3270213 37.1449517,40.2324803 C38.5067554,40.0607754 39.8679016,39.7896452 41.2309265,39.6366325 C42.4604761,39.4985547 43.7257193,39.4805201 44.9411794,39.2548521 L44.9411794,39.3018174 C44.3390852,39.4785945 43.7684577,39.9513934 43.2504312,40.2958834 C42.2002887,40.9939745 41.1594454,41.7122137 40.2404768,42.576233 C37.2123938,45.4223258 34.2996574,48.3017638 32.8856283,52.3111853 C32.3977066,53.6947808 32.0727072,55.1600959 32.0727072,56.6319861 C32.0727072,56.9372601 31.9266453,57.7798163 32.1479924,58.0066583 C32.3507883,58.2147143 32.8790062,58.2978427 33.1529074,58.3790926 C34.017866,58.6359924 35.024096,58.6993954 35.9238558,58.5984202 C36.3734539,58.5481674 36.7790456,58.4166648 37.2388822,58.4166648 L35.5200488,66.8234404 L34.5377711,71.1912065 L33.9982815,73.7273288 L34.4751194,72.6471286 L35.5983398,69.5474236 L39.0589726,60.5770652 L40.1526048,57.6652211 L40.4794828,56.7728818 C39.1047637,56.5878388 37.6896074,56.2975937 36.2995776,56.256734 C35.9107995,56.2454623 34.8715999,56.1482443 34.6571097,55.7776887 C34.3921788,55.3202474 34.7963146,54.3673229 34.7966903,53.8610377 L34.937586,53.8610377 C35.1650856,52.3135335 36.0091447,50.7721348 36.7952486,49.4463064 C38.9861295,45.7510823 42.3449416,42.8444044 45.8804839,40.4759011 C47.3303005,39.504848 48.8782744,38.4307063 50.5300414,37.8370189 C51.5839411,37.4582913 52.7651166,37.2842382 53.8641029,37.0808788 C54.3924617,36.9830032 54.914715,36.786125 55.4613902,36.7247884 C56.3293076,36.6273356 57.2362062,36.6476245 58.091443,36.4369385 L58.091443,36.3899733 C57.1967554,36.3009272 56.2536936,36.2102374 55.3674598,36.0330376 C55.0532624,35.9701981 54.6686172,35.9593961 54.3830686,35.8078863 C53.9012054,35.5522076 53.3427888,34.7404606 53.3141401,34.1826076 C53.2925361,33.7639126 53.5607075,33.2967025 53.7039514,32.9145465 C54.0782643,31.9127312 54.6498311,30.9329427 54.9447727,29.908772 C54.4497592,30.1397 54.0792036,30.7107971 53.6767116,31.0749186 C52.5847701,32.0627382 51.3350254,33.1687223 49.8725282,33.5363661 C49.4211924,33.6498341 48.9581153,33.5349102 48.5105366,33.4863012 C47.6468461,33.3924177 46.7789287,33.210991 45.9274492,33.0376893 C45.5935264,32.9696837 45.2844952,32.8078415 44.9411794,32.7736508 L44.9411794,32.6327551 C43.8492379,32.4448473 42.6882574,31.8231216 41.7005787,31.3293292 C41.4272411,31.1926604 40.8296556,31.0503557 40.6667801,30.7922349 C40.5402558,30.5916933 40.55087,30.2777778 40.5053607,30.0496676 C40.3807149,29.425171 40.3265171,28.7963066 40.2069436,28.1710586 C40.0914091,27.5671327 40.0567958,26.9543304 40.0567958,26.3394147 C40.0567958,26.0912505 40.0096897,25.790673 40.2083995,25.6022015 C40.4964842,25.3290518 41.1388276,25.2512304 41.5127178,25.1385608 C42.6779251,24.7875897 43.855813,24.4635296 45.0351098,24.1565649 C48.3057682,23.3051793 51.5520047,22.3150583 54.8038771,21.3880117 C55.7577408,21.1159891 56.7101956,20.8403972 57.6687559,20.5822763 C58.1665873,20.4482375 58.6944765,20.273339 59.2186084,20.3414386 C60.0602253,20.4507737 61.0929906,20.6678 61.6979027,21.3185032 C62.176948,21.8339935 62.3408567,22.9486662 62.5630022,23.6154315 C63.1336297,25.3319167 63.7728265,27.0267508 64.3613008,28.7346413 C65.3790372,31.6867346 66.4155598,34.6155801 67.290522,37.6110692 C67.4699291,38.2242472 67.6117641,38.8991375 67.8498778,39.4896783 C68.0227099,39.919551 68.3514664,40.5074617 68.2119797,40.9925655 C68.0781288,41.4581788 67.4891849,41.9254358 67.1557318,42.2606267 C66.3192811,43.1013042 65.504904,43.9584196 64.6665747,44.7967489 C62.5413982,46.9219255 60.3669082,48.991683 58.221067,51.0882107 C57.5156493,51.7776603 56.8863152,52.5605706 56.1522487,53.2265375 C55.3176766,53.983617 54.5732778,54.854822 53.71945,55.5902974 C53.3296386,55.9260988 53.000882,56.2600215 52.6425373,56.6319861 C52.4682963,56.8128023 52.1977766,57.0001935 52.108073,57.2425341 C51.9361803,57.7093684 52.2447418,58.2823442 52.2658762,58.7454214 C52.3316275,60.1764518 52.447162,61.6074823 52.6782309,63.019257 C52.771222,63.586597 52.7374071,64.1839946 52.7923564,64.7569704 C52.9257376,66.1523073 53.1431866,67.5401298 53.2930057,68.9368756 C53.3756645,69.7118019 53.3545302,70.5078625 53.447991,71.2809101 C53.5625861,72.2300773 53.6175354,73.1942734 53.7321306,74.1500158 C53.8068053,74.7699568 53.958503,75.3532649 53.958503,75.9816597 C54.9907987,75.7895719 55.9676754,75.2734241 56.9173123,74.8333599 C59.1528571,73.797307 61.1610902,72.4987184 63.1425531,71.0625218 C73.5984216,63.4856217 79.3887644,50.613862 78.1972566,37.7989301 C78.0136226,35.8224925 77.8323368,33.9201659 77.3589273,31.975242 C74.3385936,19.5627082 64.8060615,9.39670907 52.6904418,5.36263089 C48.4015773,3.93451227 43.7290069,3.36529372 39.2114217,3.56311125 C25.3443748,4.1704186 12.174198,12.9890793 6.67804535,25.8697624 C5.40167138,28.8609778 4.47462476,32.0556464 3.9557999,35.2628078 C3.53982888,37.8340601 3.59026954,40.4685275 3.70387842,43.0590355 C4.13675692,52.9301869 8.68951906,62.4805659 16.1808485,68.968812 C18.3203964,70.8220598 20.6065697,72.674838 23.1920994,73.8884195 C23.8335504,74.1894666 24.456826,74.7276881 25.1688188,74.8544942 Z" id="path182" fill="#D9D9D9"></path>
                    <path d="M57.4339298,19.3415959 C57.3695874,18.6087975 56.8050654,17.7575057 56.5058969,17.087265 C55.775118,15.4506677 55.1316943,13.7724593 54.3013491,12.2028814 C54.0430404,11.7151475 53.7833227,11.2200401 53.5555413,10.7180757 C53.4611412,10.5103485 53.4320228,10.2208079 53.1929698,10.1177662 C52.7359981,9.92088797 51.9991137,10.3116387 51.5628067,10.443564 C50.3078959,10.8227143 49.0177611,11.1627895 47.759093,11.5251732 C46.5887195,11.8621017 45.5122765,12.2721081 44.3775967,12.7023566 C44.0211306,12.8375225 43.2692173,13.0021356 43.0639793,13.3453575 C42.8812845,13.6503027 43.2053446,14.1804462 43.3298024,14.4572123 C43.7553074,15.3999453 44.2817876,16.2997051 44.7152766,17.2299923 C45.2215618,18.3166268 45.9589159,19.3042116 46.4079034,20.4217961 C46.5666459,20.8166797 46.7577944,21.1741321 46.9606841,21.5489616 C47.0358285,21.6877438 47.1151997,21.9337946 47.2607919,22.0130719 C47.4575762,22.1201526 47.8877777,21.9206444 48.0878496,21.8640982 C48.793737,21.6646369 49.509487,21.5156632 50.2012848,21.268814 C51.1936601,20.9146962 52.2710424,20.7675071 53.3009898,20.4961421 C54.6855247,20.1314571 56.0587879,19.6867433 57.4339298,19.3415959 L57.4339298,19.3415959 Z" id="path292" fill="#FFFFFF"></path>
                    <path d="M38.5539085,29.5330502 L38.6008737,29.5330502 C38.5544721,28.4517228 38.3195051,27.3795066 38.3190824,26.2924495 C38.3189415,25.8949828 38.266904,25.3866781 38.4665532,25.0245762 C38.7519609,24.5068785 39.7226382,24.3511888 40.2446567,24.1879846 C41.9058168,23.6686901 43.647757,22.9669357 45.3638664,22.676127 L45.5047621,22.5352313 C45.1614463,21.5971009 44.5912884,20.708284 44.150285,19.8112482 C43.6012615,18.6946969 43.1344271,17.5187345 42.606538,16.3827866 C42.3656063,15.8638208 42.1246747,15.3445263 41.8677749,14.8329341 C41.7705569,14.6384041 41.6601886,14.3341634 41.4610561,14.2237012 C41.2741345,14.1201898 40.9678272,14.175327 40.7612742,14.1754209 C40.0771787,14.1757027 39.4248317,14.2967321 38.7845547,14.519676 C36.8998871,15.1758742 35.1642402,15.8222566 33.5286292,17.0252239 C33.0567696,17.372297 32.5590791,17.6864943 32.1196724,18.075883 C31.9679278,18.2103445 31.7006487,18.368946 31.6792325,18.5901992 C31.6467795,18.9252022 31.9127906,19.3919426 32.0727072,19.6703525 C32.4825727,20.3839421 32.9003754,21.0984711 33.3564077,21.7837877 C35.0745836,24.365748 36.8338071,26.9357322 38.5539085,29.5330502 L38.5539085,29.5330502 Z" id="path344" fill="#FFFFFF"></path>
                    <path d="M41.3248569,37.8458953 C41.2149583,37.3328472 40.8421013,37.0125913 40.6128641,36.5752981 C40.0696173,35.5388695 39.5167896,34.5273794 38.9197676,33.5171104 C37.028384,30.316618 35.1518414,27.1176285 33.1384421,23.9911534 C32.4689528,22.9514841 31.7883327,21.9208322 31.1020768,20.8914484 C30.8612392,20.5301449 30.5356762,19.8298934 30.1452543,19.6247023 C29.5192078,19.2956639 28.518097,19.9279567 27.9397672,20.1374686 C26.2730183,20.7413005 24.7442532,21.8357312 23.4646855,23.055606 C22.9795348,23.5181666 22.4010641,24.0773346 22.117535,24.6956318 C21.8283701,25.326093 22.1004866,25.5962839 22.3598286,26.1533855 C22.7278951,26.9442329 23.1954339,27.6631296 23.6569142,28.4058847 C25.410361,31.22826 27.6057505,33.6936057 29.5718088,36.3430081 C30.150984,37.1235232 30.7269656,37.9153569 31.4621592,38.5638058 C31.6674442,38.7448567 31.9003918,39.1201559 32.1708175,39.192952 C32.9622755,39.4059393 33.9244991,39.0910374 34.7027599,38.9828765 C36.2237757,38.771533 37.738874,38.5625377 39.2583869,38.286711 C39.9448776,38.1620652 40.6294428,37.9065274 41.3248569,37.8458953 L41.3248569,37.8458953 Z" id="path414" fill="#FFFFFF"></path>
                    <path d="M20.1435395,27.1151863 C19.1236896,27.3326823 18.2333228,28.1521785 17.4665216,28.8087994 C16.609641,29.5426311 15.8802241,30.3683737 15.2050989,31.2700591 C14.8066459,31.8022221 14.4237854,32.356083 14.4627666,33.0554422 C14.5114225,33.9277273 15.5907304,34.7004462 16.1514483,35.2628078 C17.822518,36.9386211 19.5677928,38.439207 21.361113,39.9732323 C22.5052799,40.9518937 23.6538145,41.9110175 24.8400622,42.8340721 C25.3017304,43.1928864 25.804728,43.7400313 26.4368799,43.5977267 C27.7034851,43.3131174 28.9938548,42.2789431 29.9611036,41.4577561 C30.2481081,41.2141005 30.8625542,40.76098 30.8345159,40.3350524 C30.815495,40.0462162 30.6184759,39.8958336 30.4702536,39.6757075 C30.0715189,39.083476 29.6102264,38.5509843 29.1864592,37.9826111 C27.5536661,35.7924347 25.9617797,33.5606002 24.3174801,31.364694 C23.4913148,30.2613399 22.6639284,29.1679894 21.8178968,28.0771281 C21.3561347,27.4818439 20.9677793,26.9393955 20.1435395,27.1151863 Z" id="path546" fill="#FFFFFF"></path>
                </g>
            </g>
            <text id="Arbeitskampf" font-family="STHeitiSC-Medium, Heiti SC" font-size="30" font-weight="bold" fill="#FFFFFF">
                <tspan x="32.2999675" y="69">Arbeitskampf</tspan>
            </text>
        </g>
        <text id="Basic" font-family="STHeitiSC-Light, Heiti SC" font-size="48" font-weight="300" fill="#000000">
            <tspan x="2021.692" y="41">Basic</tspan>
        </text>
        <text id="Angriff" font-family="STHeitiSC-Light, Heiti SC" font-size="48" font-weight="300" fill="#000000">
            <tspan x="1008.352" y="41">Angriff</tspan>
        </text>
        <text id="Einigung" font-family="STHeitiSC-Light, Heiti SC" font-size="48" font-weight="300" fill="#000000">
            <tspan x="1520.36" y="41">Einigung</tspan>
        </text>
    </g>
</svg>